<?xml version="1.0" encoding="UTF-8" standalone="no"?>
<!-- Generator: Adobe Illustrator 21.0.2, SVG Export Plug-In . SVG Version: 6.00 Build 0)  -->

<svg
   xmlns:dc="http://purl.org/dc/elements/1.1/"
   xmlns:cc="http://creativecommons.org/ns#"
   xmlns:rdf="http://www.w3.org/1999/02/22-rdf-syntax-ns#"
   xmlns:svg="http://www.w3.org/2000/svg"
   xmlns="http://www.w3.org/2000/svg"
   xmlns:sodipodi="http://sodipodi.sourceforge.net/DTD/sodipodi-0.dtd"
   xmlns:inkscape="http://www.inkscape.org/namespaces/inkscape"
   version="1.1"
   id="Layer_1"
   x="0px"
   y="0px"
   viewBox="0 0 382.7 77.8"
   style="enable-background:new 0 0 382.7 77.8;"
   xml:space="preserve"
   sodipodi:docname="amex-dllwi-r.svg"
   inkscape:version="0.92.4 (5da689c313, 2019-01-14)"><metadata
   id="metadata1641"><rdf:RDF><cc:Work
       rdf:about=""><dc:format>image/svg+xml</dc:format><dc:type
         rdf:resource="http://purl.org/dc/dcmitype/StillImage" /><dc:title>amex-dllwi</dc:title></cc:Work></rdf:RDF></metadata><defs
   id="defs1639">
	

		
		
		
		
		
		
		
		
		
		
		
		
		
		
		
		
		
		
		
		
		
		
		
		
		
		
		
		
		
		
		
		
		
		
		
		
		
		
		
		
		
		
		
		
		
		
		
		
		
		
		
		
		
		
		
		
		
		
		
		
		
		
		
		
		
		
		
		
		
		
		
		
		
		
		
		
		
		
		
		
		
		
		
		
		
		
		
		
		
		
		
		
		
		
		
		
		
		
		
		
		
		
		
		
		
		
		
		
		
		
		
		
		
		
		
		
		
		
		
		
		
		
		
		
		
		
		
		
		
		
		
		
		
		
		
		
		
		
		
		
		
		
		
		
		
		
		
		
		
		
		
		
		
		
		
		
		
		
		
		
		
		
		
		
		
		
		
		
		
		
		
		
		
		
		
		
		
		
		
		
		
		
		
		
		
		
		
	</defs><sodipodi:namedview
   pagecolor="#ffffff"
   bordercolor="#666666"
   borderopacity="1"
   objecttolerance="10"
   gridtolerance="10"
   guidetolerance="10"
   inkscape:pageopacity="0"
   inkscape:pageshadow="2"
   inkscape:window-width="3840"
   inkscape:window-height="2101"
   id="namedview1637"
   showgrid="false"
   inkscape:zoom="5.6568543"
   inkscape:cx="226.88314"
   inkscape:cy="92.371721"
   inkscape:window-x="0"
   inkscape:window-y="0"
   inkscape:window-maximized="1"
   inkscape:current-layer="Layer_1" />
<style
   type="text/css"
   id="style1256">
	.st0{fill:#FFFFFF;}
	.st1{fill:#006FCF;}
</style>
<title
   id="title1258">amex-dllwi</title>
<rect
   class="st0"
   width="77.792862"
   height="77.800003"
   id="rect1624"
   x="304.90726"
   y="0"
   style="fill:#ffffff;stroke-width:0.9999541" /><g
   id="g2220"
   transform="translate(304.9001,3.0517578e-6)"><polygon
     style="fill:#ffffff"
     id="polygon1626"
     points="77.8,77.8 39.1,77.8 0,77.8 0,38.4 0,0 39.3,0 77.8,0 77.8,38.9 "
     class="st0" /><path
     style="fill:#006fcf"
     inkscape:connector-curvature="0"
     id="path1628"
     d="m 49.2,54.2 -1.6,-1.9 v 1.9 h -5.1 v -3.3 c -0.7,0.3 -1.4,0.5 -2.2,0.5 h -1.8 v 2.8 H 30.8 L 29.4,52.4 28,54.2 H 15.1 V 42 H 28 l 1.4,1.8 1.4,-1.8 h 47 V 0 H 0 V 32.8 L 2.9,26 H 8 l 1.6,3.8 V 26 h 6.3 l 1,2.8 1,-2.8 H 46 v 1.4 C 47.1,26.5 48.5,26 50,26 h 9 l 1.6,3.8 V 26 h 5.3 l 1.4,2.2 V 26 h 5.3 V 38.2 H 67.3 L 66,36 v 2.2 h -7.7 l -0.8,-1.9 h -2.1 l -0.8,1.9 h -4.8 c -1.4,0 -2.8,-0.4 -3.9,-1.3 v 1.3 H 38 l -1.6,-1.9 v 1.9 H 7.2 L 6.4,36.3 h -2 L 3.6,38.2 H 0 V 77.8 H 77.8 V 53.3 c -0.9,0.6 -1.9,0.9 -3,0.9 z"
     class="st1" /><path
     style="fill:#006fcf"
     inkscape:connector-curvature="0"
     id="path1630"
     d="m 77,45.6 0.9,-2.1 H 73 c -1.6,-0.2 -3,1 -3.2,2.5 0,0.1 0,0.2 0,0.4 -0.1,1.4 1,2.6 2.4,2.7 0.1,0 0.3,0 0.4,0 h 2.2 c 0.4,0 0.8,0.3 0.8,0.7 0,0 0,0 0,0.1 0,0.4 -0.3,0.8 -0.7,0.8 0,0 -0.1,0 -0.1,0 h -4.7 v 2.1 h 4.7 c 1.6,0.2 3,-1 3.2,-2.5 0,-0.2 0,-0.3 0,-0.5 0,-1.7 -1,-2.6 -2.9,-2.6 H 73 c -0.4,0 -0.8,-0.3 -0.8,-0.7 0,0 0,0 0,-0.1 0,-0.4 0.3,-0.8 0.7,-0.8 0,0 0.1,0 0.1,0 z m -13.2,0.7 c 0,-0.4 0.3,-0.8 0.7,-0.8 0,0 0.1,0 0.1,0 h 4 l 0.9,-2.1 h -4.9 c -1.6,-0.2 -3,1 -3.2,2.5 0,0.1 0,0.2 0,0.4 -0.1,1.4 1,2.6 2.4,2.7 0.1,0 0.3,0 0.4,0 h 2.2 c 0.4,0 0.8,0.3 0.8,0.7 0,0 0,0 0,0.1 0,0.4 -0.3,0.8 -0.7,0.8 0,0 -0.1,0 -0.1,0 h -4.7 v 2.1 h 4.7 c 1.6,0.2 3,-1 3.2,-2.5 0,-0.2 0,-0.3 0,-0.5 0,-1.7 -1,-2.6 -2.9,-2.6 h -2.2 c -0.3,0 -0.7,-0.3 -0.7,-0.8 0,0.1 0,0 0,0 z m -10.6,6.4 h 7.5 V 50.6 H 55.5 V 49 h 5 v -2 h -5 v -1.5 h 5.2 v -2.1 h -7.5 z m -0.3,0 -3,-3.3 c 1.4,-0.2 2.4,-1.4 2.4,-2.9 0.1,-1.6 -1.2,-2.9 -2.8,-3 -0.1,0 -0.3,0 -0.4,0 H 44 v 9.2 h 2.3 v -3.2 h 0.9 l 2.8,3.2 z m -4,-5.2 h -2.5 v -1.9 h 2.5 c 0.6,0 1,0.4 1.1,0.9 0,0 0,0 0,0 0,0.5 -0.4,1 -1.1,1 z M 43,46.6 c 0.1,-1.7 -1.2,-3 -2.9,-3.1 -0.1,0 -0.2,0 -0.3,0 h -5.2 v 9.2 H 37 v -3 h 2.8 c 1.7,0.1 3.1,-1.1 3.2,-2.7 0,-0.2 0,-0.3 0,-0.4 z m -2.3,0 c 0,0.6 -0.4,1 -1,1 0,0 -0.1,0 -0.1,0 H 37 v -2 h 2.6 c 0.6,0 1,0.4 1.1,0.9 0,0 0,0.1 0,0.1 z m -6.2,6.1 -3.7,-4.6 3.7,-4.5 h -2.8 l -2.2,2.8 -2.2,-2.8 h -2.9 l 3.6,4.6 -3.6,4.6 h 2.9 l 2.2,-2.8 2.2,2.8 z m -17.8,0 h 7.5 v -2 H 19 v -1.6 h 5 v -2 h -5 v -1.5 h 5.1 v -2.1 h -7.4 z"
     class="st1" /><path
     style="fill:#006fcf"
     inkscape:connector-curvature="0"
     id="path1632"
     d="m 71.1,36.7 v -9.2 h -2.3 v 5.7 l -3.7,-5.7 h -2.9 v 9.2 h 2.3 v -5.9 l 3.8,5.9 z m -11.8,0 h 2.6 L 58,27.5 h -3 l -4,9.2 h 2.6 l 0.8,-1.9 h 4.2 z m -1.6,-3.9 h -2.5 l 1.3,-3.1 c 0,0 1.2,3.1 1.2,3.1 z m -7.5,-3.2 h 2.5 V 27.5 H 50 c -2.3,-0.1 -4.3,1.6 -4.4,3.9 0,0.2 0,0.4 0,0.6 v 0.1 c 0,2.8 1.6,4.5 4.3,4.5 h 0.2 l 1,-2.1 h -0.8 c -1.2,0.1 -2.3,-0.8 -2.3,-2 0,-0.1 0,-0.3 0,-0.4 V 32 c -0.1,-1.2 0.7,-2.3 1.9,-2.4 0.1,0 0.2,0 0.3,0 z m -8.1,7 h 2.3 v -9.1 h -2.3 z m -0.3,0 -3,-3.3 c 1.4,-0.2 2.4,-1.4 2.4,-2.9 0.1,-1.6 -1.2,-2.9 -2.8,-3 -0.1,0 -0.3,0 -0.4,0 h -5.1 v 9.2 h 2.3 v -3.2 h 0.9 l 2.7,3.2 z m -4,-5.2 h -2.5 v -1.8 h 2.5 c 0.6,0 1,0.4 1.1,0.9 0,0 0,0 0,0 0,0.5 -0.4,0.9 -1.1,0.9 z m -13.7,5.3 h 7.5 v -2.1 h -5.1 v -1.5 h 5 v -2 h -5 v -1.5 h 5.1 v -2.1 h -7.5 z m -3.8,0 h 2.3 v -9.2 h -3.7 l -2,5.9 -2.1,-5.9 h -3.7 v 9.2 h 2.3 v -6.8 l 2.4,6.8 h 2 l 2.4,-6.8 z m -12,0 h 2.6 L 7,27.5 H 4 L 0,36.7 H 2.6 L 3.4,34.8 H 7.6 Z M 6.7,32.8 H 4.1 l 1.3,-3.1 z"
     class="st1" /></g><g
   id="g2423"
   transform="translate(-93.360631)"><path
     style="fill:#ffffff"
     inkscape:connector-curvature="0"
     id="path1260"
     d="m 377,34.7 0.3,-0.1 c 0.1,0.4 0.5,0.6 0.9,0.6 0.5,0 0.7,-0.2 0.7,-0.5 0,-0.3 -0.3,-0.5 -0.8,-0.6 -0.5,-0.1 -1,-0.2 -1,-0.9 0,-0.7 0.4,-0.8 1,-0.8 0.5,-0.1 0.9,0.2 1.1,0.7 l -0.3,0.1 c -0.1,-0.3 -0.4,-0.5 -0.8,-0.5 -0.4,0 -0.6,0.2 -0.6,0.5 0,0.3 0.4,0.5 0.8,0.6 0.4,0.1 1,0.2 1,0.9 0,0.7 -0.5,0.8 -1.1,0.8 -0.5,0 -1,-0.3 -1.2,-0.8 z"
     class="st0" /><path
     style="fill:#ffffff"
     inkscape:connector-curvature="0"
     id="path1262"
     d="m 379.8,35.4 v -2.9 h 0.4 l 1,2.5 v 0 l 1,-2.5 h 0.4 v 2.9 h -0.3 V 33 33 c 0,0.1 -0.1,0.3 -0.2,0.5 -0.1,0.2 -0.8,1.8 -0.8,1.9 H 381 c 0,-0.1 -0.8,-1.8 -0.8,-1.9 -0.1,-0.2 -0.1,-0.3 -0.2,-0.5 v 0 2.4 z"
     class="st0" /><path
     style="fill:#ffffff"
     inkscape:connector-curvature="0"
     id="path1264"
     d="m 370.4,45.4 v -10 h 3.7 v -2.9 h -10.9 v 2.9 h 3.7 v 10 z m -9.1,-12.9 h -3.5 v 12.9 h 3.5 z m -13.8,12.9 v -10 h 3.7 v -2.9 h -10.9 v 2.9 h 3.7 v 10 z m -14,0.2 c 3.8,0 5.4,-2 5.4,-5.4 v -7.7 h -3.4 v 7.7 c 0,1.8 -0.6,2.6 -2,2.6 -1.4,0 -2,-0.8 -2,-2.6 V 32.5 H 328 v 7.7 c 0,3.4 1.6,5.4 5.5,5.4 m -13.6,-2.8 c -1.8,0 -2.9,-1.5 -2.9,-3.9 0,-2.4 1,-3.8 2.9,-3.8 1.9,0 2.8,1.4 2.8,3.8 0,2.4 -1,3.9 -2.8,3.9 m 0,2.8 c 3.1,0 6.3,-2 6.3,-6.7 0,-4.7 -3.2,-6.7 -6.3,-6.7 -3.1,0 -6.3,2 -6.3,6.7 0,4.7 3.2,6.7 6.3,6.7 m -19.7,-0.2 h 3.5 v -5.2 h 4.3 v 5.2 h 3.5 V 32.5 H 308 v 4.8 h -4.3 v -4.8 h -3.5 z m -5.4,0 v -10 h 3.7 v -2.9 h -10.9 v 2.9 h 3.7 v 10 z m -9.1,-12.9 h -3.5 v 12.9 h 3.5 z m -15.2,12.9 2,-8.1 v 0 l 1.8,8.1 h 2.9 l 3.3,-12.9 h -3.2 l -1,5.1 c -0.2,0.9 -0.4,1.7 -0.5,2.6 v 0 c -0.1,-0.9 -0.3,-1.8 -0.6,-2.6 L 274,32.5 h -3.1 l -1.1,5.1 c -0.2,0.9 -0.4,1.8 -0.5,2.7 v 0 c -0.1,-0.9 -0.3,-1.8 -0.6,-2.7 l -1.1,-5.1 h -3.5 l 3.4,12.9 z m -124,0 v -10 h 3.7 v -2.9 h -10.9 v 2.9 h 3.7 v 10 z m -10.3,-7.5 1.6,-2.5 v -2.9 h -3.4 v 3.1 h 1.1 l -0.9,2.2 z m -12.1,7.5 v -7.2 0 l 4.9,7.2 h 3.2 V 32.5 H 129 v 7.2 0 l -4.7,-7.2 h -3.4 v 12.9 z m -11.6,-2.5 c -1.8,0 -2.8,-1.5 -2.8,-3.9 0,-2.4 1,-3.8 2.8,-3.8 1.8,0 2.8,1.4 2.8,3.8 0,2.4 -0.9,3.9 -2.8,3.9 m 0,2.8 c 3.1,0 6.3,-2 6.3,-6.7 0,-4.7 -3.2,-6.7 -6.3,-6.7 -3.1,0 -6.3,2 -6.3,6.7 0,4.7 3.2,6.7 6.3,6.7 M 96.9,35.4 h 0.9 c 2.7,0 3.4,1.1 3.4,3.5 0,2.6 -0.8,3.7 -3.4,3.7 h -1 z m 0.7,10 c 3.8,0 7.1,-1.5 7.1,-6.5 0,-4.9 -3.3,-6.3 -7.1,-6.3 h -4.2 v 12.9 h 4.2 z"
     class="st0" /><path
     style="fill:#ffffff"
     inkscape:connector-curvature="0"
     id="path1266"
     d="m 173.6,42.5 v 0 l 0.1,0.1 c 0,0 0,-0.1 -0.1,-0.1 z"
     class="st0" /><path
     style="fill:#ffffff"
     inkscape:connector-curvature="0"
     id="path1268"
     d="m 173.6,42.6 c 0,0.1 0,0.1 0,0 0,0.1 0,0.1 0,0 z"
     class="st0" /><path
     style="fill:#ffffff"
     inkscape:connector-curvature="0"
     id="path1270"
     d="m 175.9,39.4 v 0 c 0,0 0.1,0.1 0,0 z"
     class="st0" /><path
     style="fill:#ffffff"
     inkscape:connector-curvature="0"
     id="path1272"
     d="m 176.9,32 c 0,0 0,0 0,0 l 0.1,0.1 C 177,32 177,32 176.9,32 Z"
     class="st0" /><path
     style="fill:#ffffff"
     inkscape:connector-curvature="0"
     id="path1274"
     d="m 176.1,39.4 c 0,-0.1 0,-0.1 0.1,-0.2 0.1,0 0,-0.1 0,-0.2 0,-0.1 0,0.1 -0.1,0.2 -0.1,0.1 -0.1,0.1 0,0.2 z"
     class="st0" /><path
     style="fill:#ffffff"
     inkscape:connector-curvature="0"
     id="path1276"
     d="m 176.4,38.9 c 0,0 0,-0.1 0,-0.1 -0.1,0.1 -0.2,0.1 -0.2,0.2 0,0.1 0.2,0 0.2,-0.1 z"
     class="st0" /><path
     style="fill:#ffffff"
     inkscape:connector-curvature="0"
     id="path1278"
     d="m 174.4,41.6 v 0 0 c 0,0.1 0,0.1 0,0 z"
     class="st0" /><path
     style="fill:#ffffff"
     inkscape:connector-curvature="0"
     id="path1280"
     d="m 175.9,39.5 c 0,0.1 -0.1,0.1 -0.1,0.1 0,0 0,0.1 0,0.1 0,0 0.1,-0.1 0.1,-0.2 z"
     class="st0" /><path
     style="fill:#ffffff"
     inkscape:connector-curvature="0"
     id="path1282"
     d="m 175.7,39.7 c 0,0 -0.1,0 -0.1,0.1 0,0 0,0 0,0 0.1,0.1 0.1,0 0.1,-0.1 0,0.1 0,0.1 0,0 z"
     class="st0" /><path
     style="fill:#ffffff"
     inkscape:connector-curvature="0"
     id="path1284"
     d="m 232.3,37.4 v 0 c 0,0.1 0,0.1 0,0 0,0.1 0,0.1 0,0 z"
     class="st0" /><path
     style="fill:#ffffff"
     inkscape:connector-curvature="0"
     id="path1286"
     d="m 174.1,42 c 0.1,-0.1 0.2,-0.2 0.2,-0.3 -0.1,0.1 -0.2,0.1 -0.2,0.2 -0.1,0.1 -0.1,0.1 0,0.1 z"
     class="st0" /><path
     style="fill:#ffffff"
     inkscape:connector-curvature="0"
     id="path1288"
     d="m 173.8,42.3 c 0,0.1 0,0.1 0,0.1 0,0 0,0 0,0 z"
     class="st0" /><path
     style="fill:#ffffff"
     inkscape:connector-curvature="0"
     id="path1290"
     d="m 173.5,42.9 c 0,-0.1 0,-0.1 0,0 -0.1,0 0,0 0,0 z"
     class="st0" /><path
     style="fill:#ffffff"
     inkscape:connector-curvature="0"
     id="path1292"
     d="m 177.2,36.1 c 0,-0.1 0,-0.1 0,0 0,0.1 0,0.2 0,0 z"
     class="st0" /><path
     style="fill:#ffffff"
     inkscape:connector-curvature="0"
     id="path1294"
     d="m 177.3,36.7 c 0,0 0,0 0,0 0,0.2 0,0.1 0,0 z"
     class="st0" /><path
     style="fill:#ffffff"
     inkscape:connector-curvature="0"
     id="path1296"
     d="m 177.2,35.7 c 0,-0.2 0,-0.2 0,0 0,0.2 0,0.1 0,0 z"
     class="st0" /><path
     style="fill:#ffffff"
     inkscape:connector-curvature="0"
     id="path1298"
     d="m 177.2,34.2 c 0,-0.2 0,-0.2 0,0 0,0.2 0,0.1 0,0 z"
     class="st0" /><path
     style="fill:#ffffff"
     inkscape:connector-curvature="0"
     id="path1300"
     d="m 177.2,35.2 h 0.1 c 0,-0.1 0,-0.1 0,-0.1 0,0 -0.1,0.1 -0.1,0.1 z"
     class="st0" /><path
     style="fill:#ffffff"
     inkscape:connector-curvature="0"
     id="path1302"
     d="m 177.1,37.9 c 0,0 0.1,0 0,0 -0.1,0 0,-0.1 0,0 z"
     class="st0" /><path
     style="fill:#ffffff"
     inkscape:connector-curvature="0"
     id="path1304"
     d="m 177.1,36.9 c 0.1,0.1 0.1,0 0.1,0 0,0 -0.1,-0.1 -0.1,0 z"
     class="st0" /><path
     style="fill:#ffffff"
     inkscape:connector-curvature="0"
     id="path1306"
     d="m 177.1,37.1 c 0,-0.2 0,-0.2 0,0 0,0.2 0,0.2 0,0 z"
     class="st0" /><path
     style="fill:#ffffff"
     inkscape:connector-curvature="0"
     id="path1308"
     d="m 175.6,39.9 c -0.1,0 -0.1,0.1 -0.2,0.1 0,0.1 0,0.1 0,0.1 0.1,0 0.2,-0.1 0.2,-0.2 z"
     class="st0" /><path
     style="fill:#ffffff"
     inkscape:connector-curvature="0"
     id="path1310"
     d="m 175.1,40.6 v 0 c 0,0 0,0 0,0 z"
     class="st0" /><path
     style="fill:#ffffff"
     inkscape:connector-curvature="0"
     id="path1312"
     d="m 174.9,40.9 c 0,-0.1 0,-0.1 0,0 -0.1,0.1 0,0.1 0,0 z"
     class="st0" /><path
     style="fill:#ffffff"
     inkscape:connector-curvature="0"
     id="path1314"
     d="m 175.3,40.3 c 0,0.1 0,0.1 -0.1,0.1 0,0 0,0 0,0 -0.1,0 -0.1,0.1 0,0.1 0,0 0.1,0 0.1,-0.1 0,0.1 0,0 0,-0.1 z"
     class="st0" /><path
     style="fill:#ffffff"
     inkscape:connector-curvature="0"
     id="path1316"
     d="m 174.8,41 c -0.1,0 -0.1,0 -0.1,0.1 0,0.1 0.2,0 0.1,-0.1 z"
     class="st0" /><path
     style="fill:#ffffff"
     inkscape:connector-curvature="0"
     id="path1318"
     d="m 177.3,33.8 c 0,-0.1 0,-0.1 0,0 0,0.1 0,0.2 0,0 z"
     class="st0" /><rect
     style="fill:#ffffff"
     id="rect1320"
     height="0.1"
     width="0.1"
     class="st0"
     y="38.400002"
     x="176.60001" /><path
     style="fill:#ffffff"
     inkscape:connector-curvature="0"
     id="path1322"
     d="m 177,38 c 0.1,-0.1 0.1,-0.1 0,0 -0.1,0.1 -0.1,0.1 0,0 z"
     class="st0" /><path
     style="fill:#ffffff"
     inkscape:connector-curvature="0"
     id="path1324"
     d="m 176.9,38.1 c 0,0 0.1,-0.1 0.1,-0.1 -0.1,0 -0.2,0 -0.1,0.1 -0.1,0.1 -0.1,0.1 -0.1,0.1 0,0 0,-0.1 0.1,-0.1 z"
     class="st0" /><path
     style="fill:#ffffff"
     inkscape:connector-curvature="0"
     id="path1326"
     d="m 174.7,41.3 c -0.1,-0.1 -0.2,0 -0.2,0.1 0,0.1 -0.1,0.2 -0.1,0.3 0.1,0 0.1,-0.1 0.2,-0.1 0,-0.2 0.1,-0.2 0.1,-0.3 z"
     class="st0" /><path
     style="fill:#ffffff"
     inkscape:connector-curvature="0"
     id="path1328"
     d="m 229.6,41.3 c -0.1,-0.1 -0.2,0 -0.2,0.1 0,0.1 -0.1,0.2 -0.1,0.3 0.1,0 0.1,-0.1 0.2,-0.1 0,-0.2 0.1,-0.2 0.1,-0.3 z"
     class="st0" /><path
     style="fill:#ffffff"
     inkscape:connector-curvature="0"
     id="path1330"
     d="m 229.8,41 c -0.1,0 -0.1,0 -0.1,0.1 0,0.1 0.1,0 0.1,-0.1 z"
     class="st0" /><path
     style="fill:#ffffff"
     inkscape:connector-curvature="0"
     id="path1332"
     d="m 228.5,42.5 v 0 l 0.1,0.1 c 0,0 0,-0.1 -0.1,-0.1 z"
     class="st0" /><path
     style="fill:#ffffff"
     inkscape:connector-curvature="0"
     id="path1334"
     d="m 173.4,43 c 0,-0.1 -0.1,0 0,0 -0.1,0 0,0.1 0,0 z"
     class="st0" /><path
     style="fill:#ffffff"
     inkscape:connector-curvature="0"
     id="path1336"
     d="m 229.3,41.6 v 0 0 c 0,0.1 0,0.1 0,0 z"
     class="st0" /><path
     style="fill:#ffffff"
     inkscape:connector-curvature="0"
     id="path1338"
     d="m 228.7,42.3 c 0,0.1 0,0.1 0,0.1 0,0 0,0 0,0 z"
     class="st0" /><path
     style="fill:#ffffff"
     inkscape:connector-curvature="0"
     id="path1340"
     d="m 229,42 c 0.1,-0.1 0.2,-0.2 0.2,-0.3 -0.1,0.1 -0.2,0.1 -0.2,0.2 -0.1,0.1 -0.1,0.1 0,0.1 z"
     class="st0" /><path
     style="fill:#ffffff"
     inkscape:connector-curvature="0"
     id="path1342"
     d="m 221.2,41.5 v 0 c 0,0 0,0.1 -0.1,0.1 v 0 c 0,0.3 0,0.5 0.1,0.8 0.1,-0.6 0.2,-1.2 0.3,-1.8 0.1,-0.6 0.2,-1.1 0.4,-1.7 -0.2,0.2 -0.3,0.6 -0.3,0.9 0,0.4 -0.1,0.7 -0.3,1 0,-0.1 0,-0.2 0,-0.2 0,0 0,-0.1 0,-0.1 -0.2,0.3 -0.2,0.6 -0.2,0.9 v 0.1 0 c -0.1,0 0.1,-0.1 0.1,0 z m 0,-0.4 0.1,-0.3 c 0,0.1 0,0.2 0,0.3 0,0.1 -0.1,0.2 -0.1,0.3 0,-0.1 0,-0.2 0,-0.3 z"
     class="st0" /><path
     style="fill:#ffffff"
     inkscape:connector-curvature="0"
     id="path1344"
     d="m 215.4,33.4 c 0,-0.1 0,-0.1 -0.1,-0.1 -0.1,0 0,0.1 0,0.1 0,0 0,0.1 0,0.1 0,0.1 0,0 0.1,-0.1 z"
     class="st0" /><path
     style="fill:#ffffff"
     inkscape:connector-curvature="0"
     id="path1346"
     d="m 215.2,34.1 c 0,0 0,-0.1 0.1,-0.1 0,0 0,-0.1 -0.1,-0.1 0,0.1 0,0.1 0,0.2 -0.1,-0.1 -0.1,0 0,0 z"
     class="st0" /><path
     style="fill:#ffffff"
     inkscape:connector-curvature="0"
     id="path1348"
     d="m 221.1,41.5 v 0 c 0,-0.1 0,0 0,0 z"
     class="st0" /><path
     style="fill:#ffffff"
     inkscape:connector-curvature="0"
     id="path1350"
     d="m 214.5,38.5 c -0.1,0.1 -0.1,0.1 0,0.2 v 0 c 0.1,-0.1 0,-0.2 0,-0.2 z"
     class="st0" /><path
     style="fill:#ffffff"
     inkscape:connector-curvature="0"
     id="path1352"
     d="m 221.1,42 c 0,-0.1 0,-0.1 0,-0.1 0,0 0,0.1 0,0.1 0,0.1 0,0.1 0,0.2 0,-0.1 0,-0.1 0,-0.2 z"
     class="st0" /><path
     style="fill:#ffffff"
     inkscape:connector-curvature="0"
     id="path1354"
     d="m 221,42.5 c 0,-0.1 0.1,-0.1 0.1,-0.2 -0.1,0 -0.1,0 -0.1,0.2 -0.1,0 -0.1,0 -0.1,0.1 0,0 0.1,0 0.1,-0.1 z"
     class="st0" /><path
     style="fill:#ffffff"
     inkscape:connector-curvature="0"
     id="path1356"
     d="m 228.2,43.2 c 0,0 0,-0.1 0,-0.1 v 0 c 0,0 0,0 0,0.1 -0.1,0 -0.1,0.1 -0.1,0.1 0,0 0.1,-0.1 0.1,-0.1 z"
     class="st0" /><path
     style="fill:#ffffff"
     inkscape:connector-curvature="0"
     id="path1358"
     d="m 227.9,43.5 c 0,0 0,0 0,0 z"
     class="st0" /><path
     style="fill:#ffffff"
     inkscape:connector-curvature="0"
     id="path1360"
     d="m 231.9,38 c 0.1,-0.1 0.1,-0.1 0,0 -0.1,0.1 0,0.1 0,0 z"
     class="st0" /><path
     style="fill:#ffffff"
     inkscape:connector-curvature="0"
     id="path1362"
     d="m 228.3,43 c 0,-0.1 -0.1,0 0,0 -0.1,0 0,0.1 0,0 z"
     class="st0" /><path
     style="fill:#ffffff"
     inkscape:connector-curvature="0"
     id="path1364"
     d="m 214.5,38.8 v 0 c -0.1,-0.1 -0.1,-0.1 -0.1,-0.1 0,0 0,0.1 0.1,0.1 z"
     class="st0" /><path
     style="fill:#ffffff"
     inkscape:connector-curvature="0"
     id="path1366"
     d="m 224.7,29.9 c 0.3,0 0.5,0 0.7,-0.2 0.2,-0.1 0.5,-0.2 0.7,-0.2 l 0.5,-0.4 c 0.2,-0.2 0.3,-0.3 0.5,-0.5 0.1,-0.1 0.1,-0.1 0.1,0 0,0.1 0.1,0.1 0.1,0 0.1,-0.2 0.1,-0.4 0.1,-0.6 0,-0.2 0.1,-0.4 0.1,-0.7 -0.2,-0.5 -0.7,-1 -1.2,-1.1 -0.4,-0.1 -0.8,0 -1.2,0.2 -0.3,0.2 -0.6,0.3 -0.9,0.3 0,0.5 0,1.1 0.1,1.6 0.2,0.6 0.3,1.1 0.4,1.6 z"
     class="st0" /><path
     style="fill:#ffffff"
     inkscape:connector-curvature="0"
     id="path1368"
     d="m 227.3,44.5 c 0,-0.2 0.1,-0.4 0.3,-0.5 0.1,-0.1 0.2,-0.2 0.3,-0.4 l -0.4,0.4 c -0.3,0.1 -0.3,0.3 -0.2,0.5 z"
     class="st0" /><path
     style="fill:#ffffff"
     inkscape:connector-curvature="0"
     id="path1370"
     d="m 228.5,42.6 c 0,0.1 0,0.1 0,0 0,0.1 0,0.1 0,0 z"
     class="st0" /><path
     style="fill:#ffffff"
     inkscape:connector-curvature="0"
     id="path1372"
     d="m 226.3,45.4 c 0,0 0,0 -0.1,0 v 0.1 0 c 0.1,0 0.1,0 0.1,-0.1 z"
     class="st0" /><path
     style="fill:#ffffff"
     inkscape:connector-curvature="0"
     id="path1374"
     d="m 226.2,45.5 c 0,0 0,0.1 0,0 -0.1,0.1 -0.1,0.1 -0.1,0.2 0,0.1 0.1,-0.1 0.1,-0.2 z"
     class="st0" /><path
     style="fill:#ffffff"
     inkscape:connector-curvature="0"
     id="path1376"
     d="m 226,45.9 c 0,-0.1 0,-0.1 0.1,-0.1 0.1,0 0.1,-0.1 0.1,-0.1 -0.1,0 -0.1,0 -0.2,0.1 0,-0.1 -0.1,0 0,0.1 z"
     class="st0" /><path
     style="fill:#ffffff"
     inkscape:connector-curvature="0"
     id="path1378"
     d="M 227.1,44.5 Z"
     class="st0" /><path
     style="fill:#ffffff"
     inkscape:connector-curvature="0"
     id="path1380"
     d="m 221.6,39.2 c -0.1,0.2 -0.2,0.4 -0.2,0.5 0,0.2 -0.1,0.5 -0.1,0.7 0.1,-0.2 0.1,-0.4 0.2,-0.7 0,-0.1 0.1,-0.3 0.1,-0.5 z"
     class="st0" /><path
     style="fill:#ffffff"
     inkscape:connector-curvature="0"
     id="path1382"
     d="m 226.4,45.2 c 0.1,0 0.1,0 0.2,0 0,-0.1 0,-0.1 0.1,-0.2 -0.1,0 -0.2,0.1 -0.3,0.2 z"
     class="st0" /><path
     style="fill:#ffffff"
     inkscape:connector-curvature="0"
     id="path1384"
     d="m 228.4,42.9 c 0,-0.1 0,-0.1 0,0 -0.1,0 0,0 0,0 z"
     class="st0" /><path
     style="fill:#ffffff"
     inkscape:connector-curvature="0"
     id="path1386"
     d="m 177.3,36.1 c 0,0 0,0.1 0,0.2 0,0.1 0,0.1 0,0.1 -0.1,0 0,-0.1 0,-0.3 0.2,0.1 0.1,0 0,0 z"
     class="st0" /><path
     style="fill:#ffffff"
     inkscape:connector-curvature="0"
     id="path1388"
     d="m 177.4,35.7 c 0.1,-0.1 0.1,-0.2 0,-0.2 0,0 0,0.1 0,0.2 z"
     class="st0" /><path
     style="fill:#ffffff"
     inkscape:connector-curvature="0"
     id="path1390"
     d="m 214.4,39.5 c 0,0 -0.1,0 -0.1,-0.1 v 0.2 c 0.1,0.1 0.1,0.1 0.1,-0.1 z"
     class="st0" /><path
     style="fill:#ffffff"
     inkscape:connector-curvature="0"
     id="path1392"
     d="m 177.3,34.5 v 0 c 0,0 0,0 0,0 z"
     class="st0" /><path
     style="fill:#ffffff"
     inkscape:connector-curvature="0"
     id="path1394"
     d="m 177.4,34.3 v 0 c 0,0 0.1,0 0,0 z"
     class="st0" /><path
     style="fill:#ffffff"
     inkscape:connector-curvature="0"
     id="path1396"
     d="m 177.3,36.7 v 0 c 0,0 0,-0.1 0,0 z"
     class="st0" /><path
     style="fill:#ffffff"
     inkscape:connector-curvature="0"
     id="path1398"
     d="m 177.3,37.4 v 0 c 0.1,0.1 0.1,0.1 0,0 0,0.1 0,0.1 0,0 z"
     class="st0" /><path
     style="fill:#ffffff"
     inkscape:connector-curvature="0"
     id="path1400"
     d="m 177.3,34.8 c 0.1,0.1 0.1,0 0.1,-0.1 0,-0.1 0,-0.2 -0.1,-0.2 -0.1,0 0.1,0.2 0,0.2 0,0 0,0.1 0,0.1 z"
     class="st0" /><rect
     style="fill:#ffffff"
     id="rect1402"
     height="0.1"
     width="0.1"
     class="st0"
     y="38.400002"
     x="231.5" /><path
     style="fill:#ffffff"
     inkscape:connector-curvature="0"
     id="path1404"
     d="m 177.2,34.5 v 0 c 0,0 0,0 0,0 z"
     class="st0" /><path
     style="fill:#ffffff"
     inkscape:connector-curvature="0"
     id="path1406"
     d="m 231.8,38.1 c 0,0 0.1,0 0.1,-0.1 0,-0.1 -0.1,0 -0.1,0.1 -0.1,0.1 -0.1,0.1 -0.1,0.1 0,0 0.1,-0.1 0.1,-0.1 z"
     class="st0" /><path
     style="fill:#ffffff"
     inkscape:connector-curvature="0"
     id="path1408"
     d="m 230.2,40.3 c 0,0.1 0,0.1 -0.1,0.1 0,0 0,0 0,0 -0.1,0 -0.1,0.1 0,0.1 0,0 0.1,0 0.1,-0.1 0,0.1 0.1,0 0,-0.1 z"
     class="st0" /><path
     style="fill:#ffffff"
     inkscape:connector-curvature="0"
     id="path1410"
     d="m 230,40.6 v 0 c 0,0 0,0 0,0 z"
     class="st0" /><path
     style="fill:#ffffff"
     inkscape:connector-curvature="0"
     id="path1412"
     d="m 229.9,40.9 c 0,-0.1 0,-0.1 0,0 -0.2,0.1 0,0.1 0,0 z"
     class="st0" /><path
     style="fill:#ffffff"
     inkscape:connector-curvature="0"
     id="path1414"
     d="m 177.4,35 v 0 c 0,0 0.1,0.1 0,0 z"
     class="st0" /><path
     style="fill:#ffffff"
     inkscape:connector-curvature="0"
     id="path1416"
     d="m 213.9,44 c 0,-0.1 0,-0.1 -0.1,0 -0.1,0.1 0.1,0.1 0.1,0 z"
     class="st0" /><path
     style="fill:#ffffff"
     inkscape:connector-curvature="0"
     id="path1418"
     d="m 187.8,30.8 c 0,0 0,0 0,0.1 0,0.1 0,-0.1 0,-0.1 z"
     class="st0" /><path
     style="fill:#ffffff"
     inkscape:connector-curvature="0"
     id="path1420"
     d="m 187.8,30.7 v 0 c 0,0 0,0 0,0 z"
     class="st0" /><path
     style="fill:#ffffff"
     inkscape:connector-curvature="0"
     id="path1422"
     d="m 187.9,30.6 c -0.1,-0.1 -0.1,0 0,0.1 0,0 0,-0.1 0,-0.1 z"
     class="st0" /><path
     style="fill:#ffffff"
     inkscape:connector-curvature="0"
     id="path1424"
     d="m 177,37.5 v 0 c 0,0.1 0.1,0.1 0.1,0.1 0.1,-0.1 0,-0.1 -0.1,-0.1 z"
     class="st0" /><path
     style="fill:#ffffff"
     inkscape:connector-curvature="0"
     id="path1426"
     d="m 214.2,41.9 c 0,-0.1 0,-0.1 0,-0.1 v 0.1 0 0 c 0,0.1 0,0.1 0,0 z"
     class="st0" /><path
     style="fill:#ffffff"
     inkscape:connector-curvature="0"
     id="path1428"
     d="m 214.4,40.1 c 0,-0.1 0,-0.1 0,0 0,0 0,0.1 -0.1,0.2 v 0.1 c 0,-0.1 0.1,-0.2 0.1,-0.3 z"
     class="st0" /><path
     style="fill:#ffffff"
     inkscape:connector-curvature="0"
     id="path1430"
     d="m 187.7,30.9 c 0,0 -0.1,0 0,0 0.1,0.1 0.1,0.1 0,0 z"
     class="st0" /><path
     style="fill:#ffffff"
     inkscape:connector-curvature="0"
     id="path1432"
     d="m 187,32.5 c 0,-0.1 0,-0.1 -0.1,0 -0.1,0.1 0.1,0.2 0.1,0 z"
     class="st0" /><path
     style="fill:#ffffff"
     inkscape:connector-curvature="0"
     id="path1434"
     d="m 177.9,31.5 c 0,-0.2 0,-0.1 0,0 0,0.1 0,0.1 0,0 z"
     class="st0" /><path
     style="fill:#ffffff"
     inkscape:connector-curvature="0"
     id="path1436"
     d="m 187.3,32.1 c 0,0 0.1,-0.1 0,-0.2 -0.1,0 -0.1,0.1 -0.2,0.2 0,0.1 0,0.1 0,0.2 0,-0.1 0.1,-0.2 0.2,-0.2 z"
     class="st0" /><path
     style="fill:#ffffff"
     inkscape:connector-curvature="0"
     id="path1438"
     d="m 187.5,31.3 c -0.1,-0.1 -0.1,0 0,0.2 0.1,-0.1 0.1,-0.2 0,-0.2 z"
     class="st0" /><path
     style="fill:#ffffff"
     inkscape:connector-curvature="0"
     id="path1440"
     d="m 187.4,31.7 c 0,-0.1 0,-0.1 0,-0.2 v 0 l -0.1,0.2 c 0,0.1 0,0.2 0,0.3 v 0 z"
     class="st0" /><path
     style="fill:#ffffff"
     inkscape:connector-curvature="0"
     id="path1442"
     d="m 228,43.3 -0.1,0.1 c 0,0 0,0.1 0,0.1 0,0 0.1,0 0.1,-0.1 0,0 0,-0.1 0,-0.1 z"
     class="st0" /><path
     style="fill:#ffffff"
     inkscape:connector-curvature="0"
     id="path1444"
     d="m 184.6,37.5 v 0 c 0,0 0,-0.2 0.1,-0.2 0.1,0 0.1,0 0.1,-0.1 -0.3,0.1 -0.3,0.2 -0.2,0.3 -0.1,0.1 0,0.1 0,0 z"
     class="st0" /><path
     style="fill:#ffffff"
     inkscape:connector-curvature="0"
     id="path1446"
     d="m 188,30.3 c -0.1,0 -0.1,0.1 0,0.2 0,0 0,0 0,0 0,-0.1 0,-0.1 0,-0.2 0.1,0 0.2,-0.1 0.1,-0.1 H 188 c 0,0 0,0 0,0.1 z"
     class="st0" /><path
     style="fill:#ffffff"
     inkscape:connector-curvature="0"
     id="path1448"
     d="m 184.3,38 c 0,-0.1 0.1,-0.2 0.2,-0.3 v -0.1 0 c 0,0.1 -0.1,0.2 -0.2,0.4 -0.1,0 -0.1,0.1 -0.1,0.3 v 0 c 0.1,-0.1 0.1,-0.2 0.1,-0.3 z"
     class="st0" /><path
     style="fill:#ffffff"
     inkscape:connector-curvature="0"
     id="path1450"
     d="m 183.3,40.1 c 0,-0.1 0,-0.2 0,-0.2 0,0.1 -0.1,0.1 -0.1,0.2 0,0.1 -0.1,0.2 -0.1,0.2 0.1,0 0.2,-0.1 0.2,-0.2 z"
     class="st0" /><path
     style="fill:#ffffff"
     inkscape:connector-curvature="0"
     id="path1452"
     d="m 166.3,42.6 c -0.1,0 -0.2,0 -0.1,0.1 0,0 0.1,0.1 0.1,0.2 -0.1,0 0,-0.1 0,-0.3 z"
     class="st0" /><path
     style="fill:#ffffff"
     inkscape:connector-curvature="0"
     id="path1454"
     d="m 177.2,45.9 c 0,-0.1 0,-0.1 0,0 0,0.1 0,0.1 0,0 z"
     class="st0" /><path
     style="fill:#ffffff"
     inkscape:connector-curvature="0"
     id="path1456"
     d="m 170.8,46.1 c 0,0 0,0 0,0 0,0 0,0 0,0 z"
     class="st0" /><path
     style="fill:#ffffff"
     inkscape:connector-curvature="0"
     id="path1458"
     d="m 184.2,38.2 c -0.1,0 -0.1,0 -0.1,0 0,0.1 0,0.1 0,0.2 0,0 0.1,-0.1 0.1,-0.2 z"
     class="st0" /><path
     style="fill:#ffffff"
     inkscape:connector-curvature="0"
     id="path1460"
     d="m 170.7,46 c 0,0 0,0.1 0,0 v 0 c 0,0.1 0.1,0 0,0 z"
     class="st0" /><path
     style="fill:#ffffff"
     inkscape:connector-curvature="0"
     id="path1462"
     d="m 172.8,47.5 c 0.1,0 0.1,0 0.1,-0.1 0,-0.1 -0.2,0.1 -0.1,0.1 z"
     class="st0" /><path
     style="fill:#ffffff"
     inkscape:connector-curvature="0"
     id="path1464"
     d="m 189.9,32.1 c -0.1,-0.4 -0.2,-0.9 -0.1,-1.3 -0.1,0 -0.1,0.1 -0.1,0.1 0,0.1 -0.1,0.1 -0.2,0.1 0.1,-0.1 0.1,-0.2 0.1,-0.4 0,-0.1 -0.1,-0.2 -0.2,-0.2 0,-0.1 0,-0.2 0.1,-0.2 0,0 0,0 0,0 0.1,0 0.1,-0.1 -0.1,-0.1 0.1,-0.1 0,-0.2 -0.1,-0.2 -0.1,0 -0.1,-0.1 -0.1,-0.2 -0.1,0.1 -0.2,0.1 -0.2,0 0,-0.1 -0.1,0 -0.2,0.1 0,-0.1 0,-0.1 0.1,-0.2 0.1,-0.1 0,-0.1 0,-0.2 0,0.1 0,0.1 -0.1,0.2 -0.1,0 -0.1,0.1 -0.2,0.1 0,0 0,0 0,0.1 0,0.1 0,0.1 -0.1,0.1 v -0.2 c 0,-0.1 0,-0.1 0.1,0 v -0.2 c -0.2,0.1 -0.3,0.3 -0.4,0.6 0.1,0 0.1,0 0.1,-0.1 0,-0.1 0.1,-0.1 0.1,0 -0.4,0.8 -0.9,1.6 -1.2,2.4 -0.4,0.8 -0.8,1.6 -1.3,2.4 -0.2,0.2 -0.3,0.4 -0.5,0.6 -0.1,0.2 -0.2,0.5 -0.2,0.8 0,0 0.1,-0.1 0.1,-0.2 0,-0.1 0,-0.1 0.1,0 -0.1,0.2 -0.2,0.3 -0.3,0.5 0,-0.1 0,-0.2 0,-0.2 0,0.1 -0.1,0.2 -0.1,0.2 0.2,0 0.2,0 0,0.2 -0.1,0.1 -0.2,0.2 -0.2,0.4 0,-0.2 0,-0.3 0.1,-0.3 0.1,-0.1 0.1,-0.2 0.1,-0.3 -0.2,0.2 -0.3,0.3 -0.2,0.5 0.1,0.2 0,0.4 -0.2,0.5 0,0.1 0,0.1 -0.1,0.2 0,0.3 -0.2,0.7 -0.5,0.9 0,0 0,-0.1 0,-0.1 v 0 c -0.2,0.1 -0.2,0.4 -0.2,0.6 0,0.2 0,0.4 -0.2,0.6 -0.1,-0.1 -0.1,-0.1 0,-0.2 0.1,0 0.1,-0.1 0,-0.1 -0.1,0.2 -0.1,0.4 -0.1,0.6 0,0.3 -0.1,0.5 -0.3,0.7 v -0.3 c 0,0.1 -0.1,0.2 -0.1,0.3 V 41 c -0.2,0 -0.2,0 -0.2,0.2 v 0 0 c 0,0 0,-0.1 0,-0.1 0,0 0,0 0,0.1 0,0.1 0,0.2 -0.1,0.2 v -0.2 c -0.5,0.8 -0.9,1.6 -1.2,2.4 -0.3,0.8 -0.7,1.6 -1.2,2.3 -0.2,-1.5 -0.2,-2.9 0,-4.4 0.1,-1.7 0.3,-3.3 0.4,-4.9 0,-0.2 0.1,-0.5 0.1,-0.7 0,-0.2 0,-0.5 0,-0.7 0,-0.1 0,-0.2 -0.1,-0.2 0,-0.1 -0.1,-0.2 -0.1,-0.2 -0.1,-0.2 -0.1,-0.4 0,-0.6 0,-0.1 0,-0.3 0,-0.4 -0.1,-0.1 -0.1,-0.3 -0.2,-0.4 -0.1,-0.2 -0.1,-0.4 0,-0.5 -0.2,-0.3 -0.4,-0.6 -0.6,-0.9 -0.2,-0.3 -0.6,-0.4 -0.9,-0.2 0,-0.1 0,-0.2 -0.1,-0.2 h -0.2 c -0.1,0 -0.2,0.1 -0.4,0.2 -0.1,0.1 -0.2,0.1 -0.3,0 0.1,0.2 0,0.2 -0.1,0.2 -0.1,0 -0.2,-0.1 -0.3,-0.1 l -0.3,0.2 c -0.1,0.1 -0.2,0.3 -0.2,0.5 0.2,0 0.3,0.1 0.3,0.4 0,0.2 0.1,0.3 0.2,0.4 0,0 0,0 0,0.1 v 0.2 c 0,0.1 0,0.1 0,0 v -0.2 c 0,0 0,0 0,-0.1 l 0.1,0.1 c 0,1.1 0,2.1 -0.1,3 0,0.3 0,0.6 0,0.9 -0.1,0 -0.1,0 -0.1,0.1 0,0.1 0,0.1 0.1,0.1 v 0 c -0.1,0.3 -0.3,0.5 -0.4,0.7 0,-0.1 0,-0.1 0,0 v 0 c -0.1,0.2 -0.3,0.4 -0.4,0.5 -0.4,0.4 -0.6,0.9 -0.8,1.4 -0.1,-0.1 -0.1,-0.1 -0.1,0 0,0 0,0 -0.1,0 -0.8,1.2 -1.7,2.4 -2.6,3.5 -0.9,1.1 -1.8,2.2 -2.9,3.1 0.1,-0.1 0.2,-0.2 0.3,-0.3 0.1,-0.1 0.2,-0.2 0.2,-0.3 -0.3,0.2 -0.5,0.4 -0.7,0.7 -0.2,0.2 -0.5,0.4 -0.7,0.6 -0.2,-0.7 -0.2,-1.3 -0.2,-2 0,-0.7 0,-1.4 0.1,-2.2 0.1,-0.3 0.1,-0.6 0.1,-0.9 0,-0.3 0.1,-0.7 0.1,-1 0,-0.4 0.1,-0.8 0.2,-1.2 0.1,-0.4 0.2,-0.7 0.3,-1.1 0.1,-0.2 0.1,-0.4 0.1,-0.6 0,-0.2 0.1,-0.4 0.1,-0.6 0,-0.1 0.1,-0.1 0.1,-0.1 0.1,0 0.1,-0.1 0.1,-0.1 0.1,-0.3 0.1,-0.5 0.1,-0.8 0,-0.3 0,-0.6 0.1,-0.9 0.1,-0.2 0.1,-0.4 0.2,-0.7 0,-0.2 0.1,-0.5 0.2,-0.7 -0.2,-0.2 -0.4,-0.3 -0.6,-0.4 -0.3,-0.1 -0.5,-0.1 -0.8,-0.1 -0.3,0 -0.6,0 -0.8,0.1 l -0.6,0.1 c 0,0.1 0,0.1 0.1,0.1 0.1,0 0.1,0 0,0.1 -0.1,0 -0.1,0.1 -0.1,0.1 0,0.1 -0.1,0.1 -0.1,0.1 -0.2,0.7 -0.4,1.4 -0.6,2.1 -0.3,0.7 -0.4,1.4 -0.5,2.2 0.2,-0.3 0.3,-0.6 0.3,-0.9 0,-0.3 0.1,-0.6 0.3,-0.9 0,0.2 -0.1,0.5 -0.2,0.7 -0.1,0.2 -0.1,0.4 0,0.6 0,-0.2 0,-0.4 0.1,-0.8 0,-0.3 0.2,-0.6 0.3,-0.8 -0.1,0.3 -0.1,0.7 -0.3,1 -0.1,0.3 -0.2,0.7 -0.2,1.1 -0.3,0.9 -0.5,1.8 -0.6,2.7 -0.1,1.1 -0.2,2 -0.3,2.8 -0.1,-0.3 -0.1,-0.6 0,-0.8 0,-0.3 0,-0.5 0,-0.8 -0.1,0 -0.2,0 -0.2,0 0,0.1 0,0.1 0,0.2 0,0 0,0.1 0,0.1 0.1,0 0.1,0 0,-0.1 -0.1,-0.1 0,-0.1 0.1,0 -0.1,0.2 -0.1,0.5 -0.1,0.7 0,0.3 0,0.5 -0.1,0.8 0,-0.2 0,-0.4 0,-0.7 0,-0.2 0,-0.4 0,-0.5 -0.1,0.3 -0.1,0.5 -0.1,0.8 0,0.3 0,0.7 0,1 0,0.7 0.2,1.3 0.6,1.9 0.4,0.5 1,0.9 1.6,1.1 l 0.2,0.2 c 0,0.1 0.1,0.1 0.2,0.1 0.2,0.1 0.4,0.2 0.6,0.2 0.2,0 0.4,0.1 0.6,0.2 0.5,0 1,-0.1 1.5,-0.2 0.4,-0.2 0.8,-0.4 1.2,-0.6 0,-0.2 0.1,-0.4 0.3,-0.5 0.1,-0.1 0.3,-0.2 0.3,-0.4 0.1,0 0.1,0 0.2,0 0.1,0 0.1,0 0.1,-0.2 0,-0.2 0,-0.1 0.2,-0.1 0.2,0 0,0 0,-0.1 0,-0.1 0,-0.1 0.1,0 0,-0.1 0,-0.1 0,-0.2 l 1,-1.2 1,-1.2 c 0,-0.1 0,-0.1 0,-0.2 0,0 0,-0.1 0,-0.1 0,0 0.1,0 0.2,0 0.1,-0.4 0.3,-0.7 0.6,-1.1 0.2,-0.3 0.4,-0.6 0.5,-1 h 0.1 c 0,-0.1 0,-0.2 0,-0.3 0.1,-0.1 0.1,-0.1 0.1,-0.2 0,0 0.1,0 0.1,0 v 0 h 0.1 c 0.1,-0.2 0.2,-0.5 0.3,-0.7 v 0 1.2 c 0,1 0,2.1 0,3.3 -0.1,0 -0.1,0 -0.1,0 0,0.1 -0.1,0.1 -0.1,0.2 0.2,0 0.3,0.2 0.3,0.3 0,0.2 0,0.4 -0.1,0.5 -0.1,0.1 -0.1,0 -0.1,0 H 177 c 0.1,0.2 0.2,0.3 0.2,0.5 0.1,0.2 0.2,0.4 0.3,0.5 0.1,0.1 0.2,0.1 0.4,0.2 0.1,0.1 0.3,0.1 0.4,0.2 0.1,0.1 0.2,0.1 0.2,0.2 0,0 0.1,0.1 0.4,0.2 l 0.6,0.3 c 0.2,0.1 0.4,0.2 0.6,0.2 0,0 0.1,0 0.1,0 0,0 0.1,0 0.1,0 l 1,-0.1 c 0.4,0 0.7,-0.2 1,-0.4 0,-0.1 0,-0.1 0.1,-0.1 0.1,0 0,0 0,-0.1 0.1,0.1 0.3,0 0.4,-0.2 0.1,-0.2 0.2,-0.3 0.1,-0.3 v 0 0 C 183,47 183,47 183.1,47 c 0,-0.2 0,-0.3 0.1,-0.3 l 0.5,-0.8 c 0.1,-0.2 0.3,-0.5 0.6,-0.7 0,-0.1 0,-0.2 0,-0.3 0,-0.1 0.1,-0.2 0.3,-0.2 0.3,-0.7 0.5,-1.4 0.8,-2 0.3,-0.6 0.6,-1.3 1,-1.9 0.4,-0.7 0.7,-1.5 1.1,-2.3 0.4,-0.8 0.8,-1.7 1.2,-2.4 0.2,-0.5 0.4,-0.9 0.6,-1.4 0.2,-0.5 0.4,-1 0.6,-1.5 0.1,-0.1 0.1,-0.6 0,-1.1 z m -12.6,0.3 c 0,-0.1 0,-0.1 0,0 0,0.1 0.1,0.2 0,0 z m 0.3,0.5 h -0.1 v -0.1 h 0.1 z m -11.6,12 c 0,0 0,-0.1 0,-0.1 0.1,0 0.1,0 0.1,0.1 0,0.1 -0.1,0 -0.1,0 z m 0.4,1.3 c -0.1,0.1 -0.1,0.1 -0.1,0 V 46 c 0.1,0 0.1,0 0,0.1 -0.1,0.1 0.1,0.1 0.1,0.1 z m -0.2,-1.4 c 0,-0.1 0,-0.2 0,-0.3 0,0.1 0,0.2 0,0.3 0,0.1 0,0.1 0,0.2 -0.1,0 -0.1,-0.1 0,-0.2 z m 0.1,0.6 c 0,0.2 0,0.3 -0.1,0.3 v -0.6 c 0.1,0.1 0.1,0.2 0.1,0.3 z m 0,0.5 v 0 0 c 0.1,-0.1 0.1,-0.1 0.1,0 0,0.1 -0.1,0 -0.1,0 z m 0.1,0.7 c 0,0 -0.1,0 0,0 0.1,-0.2 0,-0.2 0,-0.2 0,0 0.1,0 0.1,0 0,0 0,0.1 -0.1,0.2 z m 1.1,-9.9 c 0,0 -0.1,0.1 -0.1,0.1 v 0 0.2 c -0.1,0 -0.1,0 -0.1,-0.1 0,-0.1 0,-0.1 0.1,-0.2 0,0.1 0,0.1 0.1,0 v -0.2 c 0.1,0.1 0,0.2 0,0.2 z m 0,-0.3 c 0,0 0,-0.1 0,-0.1 0,0 0,0 0,-0.1 0.1,0 0.1,0 0,0.2 0.1,0 0.1,0 0,0 z m 0.2,0.1 c 0,0.1 0,0.1 0,0.2 -0.1,-0.1 -0.1,-0.1 0,-0.2 0.1,0 0.1,0 0,0 -0.1,-0.1 0,0 0,0 z m 0.2,-0.9 c 0,0.1 -0.1,0.1 -0.1,0.2 0,-0.1 0,-0.1 0.1,-0.2 -0.1,-0.1 -0.1,-0.1 -0.1,-0.2 0.1,0.1 0.1,0.1 0.1,0.2 z m 0.3,-1.2 z m 5.4,8.8 c -0.1,0 -0.1,0 0,0 0.1,0 0.1,-0.1 0,0 z m 2,-3 c 0.1,0 0.1,0 0.1,0.1 0,0.1 -0.1,0 -0.1,-0.1 z m 1.8,-2.9 z m -0.2,8.4 z m 0.1,0.9 c 0.1,0 0.1,0.1 0.1,0.3 0,0 0,-0.1 -0.1,-0.3 z m 4,-2.1 h -0.1 v -0.1 h 0.1 z m 0.2,-0.3 c -0.1,-0.1 -0.1,-0.1 0,-0.2 0,0 0,-0.1 0,-0.2 0,0 0,0 0,0 0.1,0 0.1,0 0.1,0.1 0,0.2 -0.1,0.2 -0.1,0.3 z m 0.1,-0.6 c 0,-0.1 0,-0.1 0,0 0,0.1 0.1,0.2 0,0 z m 0.4,-0.2 c 0,0 0,0 0,0 -0.1,0.1 -0.1,0 0,0 0,0 0,-0.1 0,0 0.1,-0.1 0.1,0 0,0 z M 181.9,43 c 0,-0.1 0,-0.2 0.1,-0.2 0.1,0 0.1,0 0.1,-0.1 0,-0.1 0.1,0 0,0.1 -0.1,0.1 -0.1,0.2 -0.2,0.2 z m 0.2,0.1 v 0 c 0,0 0,0 0,0 z m 0.1,-0.7 c 0.1,0.1 0.1,0.1 -0.1,0.1 0.1,-0.1 0.1,-0.1 0.1,-0.1 z m 0.2,0.3 h -0.1 v -0.1 h 0.1 z m 0.1,-0.9 c 0,0.1 0,0.1 0,0 0,0.1 0,0.1 0,0.2 v 0 c 0,0.2 -0.1,0.2 -0.2,0.2 0.1,-0.2 0.1,-0.2 0.2,-0.2 -0.1,0 -0.1,-0.1 0,-0.2 v 0 c 0,0 0,-0.1 0,0 0,-0.1 0.1,0 0,0 z m 0.2,-0.4 c 0,-0.1 0,-0.1 0,0 0,-0.1 0.1,0 0,0 z m 0.4,-0.6 c 0,0 0,0.1 0,0.2 0,0 0,0 0,0 0,-0.1 0,-0.2 0,-0.2 0,-0.1 0,-0.1 0,-0.1 0.1,0 0.2,0.1 0,0.1 z m 0.2,-0.4 c 0,-0.1 0,-0.1 0,0 0,0.1 0.1,0.2 0,0 z m 0.3,-0.4 c 0,0 0,0.1 0,0.1 -0.1,0 -0.1,0 0,-0.1 0,0 0,0 0,0 0,0 0.1,0 0,0 z m 0,-0.4 c 0,-0.1 0,-0.1 0,0 0,0.1 0,0.1 0.1,0 z m 0.2,-0.5 c -0.1,-0.1 -0.1,-0.1 0,-0.2 0,0 0.1,-0.1 0.1,-0.2 0.1,0.1 0.1,0.1 0,0.2 0,0.1 0,0.2 0,0.2 z m 0.1,0 c 0,0 0,-0.1 0,-0.1 0,0 0,-0.1 0,-0.1 0.1,0 0.1,0 0.1,0.1 0,0.1 0.1,0.1 0,0.1 z m 0.2,-0.3 c 0,-0.2 0,-0.2 0.1,-0.1 0.1,0.1 0.1,0.1 0,0.1 z m 0.1,-0.3 v 0 c 0,0 0.2,0 0.1,0 z m 0.1,-0.3 c 0,-0.2 0,-0.2 0,0 0,0.2 0.1,0.1 0.1,0 z m 0.2,-0.3 c 0,0 0,0.1 0,0.1 0,0 0,0 0,0 0,0 0,0 0,-0.1 0,0 0,0 0,0 0.2,-0.1 0.2,0 0.1,0 z m 0.3,-0.5 v 0 c 0,0 0.2,0 0.1,0 z m 0.3,-0.7 c 0,0.1 0,0.1 0,0.1 0,0 0,0.1 0,0.1 v 0 c 0,0.1 0,0.1 0,0.1 0,0 0,-0.1 0,-0.1 0,0 0,-0.1 0,-0.2 h 0.1 c 0,-0.1 0,-0.1 0,-0.1 0,0 0.1,0 0,0.1 z m 0.2,-0.9 c 0.1,-0.1 0.1,-0.1 0.1,0 0,0.1 0.1,0.1 0,0 z m 0.5,-0.2 c 0,0.1 0,0.2 -0.1,0.1 -0.1,-0.1 0,-0.1 0.1,-0.1 0,-0.1 0,-0.1 0,-0.2 0,-0.1 0,-0.1 0.1,0 0,0.1 0,0.1 0,0.2 z m 0.3,-0.9 c -0.1,0.3 -0.3,0.5 -0.5,0.9 0,-0.2 0,-0.3 0.1,-0.5 0.1,-0.1 0.3,-0.3 0.4,-0.4 0.1,-0.1 0,-0.3 0.1,-0.2 0,0.1 0,0.2 0,0.2 z m 0.3,-0.3 c 0,-0.1 0,-0.1 0,0 0,0.1 0.2,0 0.1,0 z m 0,-0.3 c -0.1,0.1 -0.1,0.2 -0.1,0.3 -0.1,-0.1 -0.1,-0.2 0,-0.3 0.1,-0.1 0.1,-0.2 0.1,-0.3 0.2,0.1 0.2,0.1 0.1,0.2 z m 0.3,-0.6 c -0.1,0.1 -0.1,0.2 -0.1,0.3 -0.1,-0.1 -0.1,-0.2 0,-0.2 0,-0.1 0.1,-0.1 0.1,-0.2 0.3,0 0.3,0.1 0.1,0.2 z m 0,-0.2 c 0.1,0 0.1,-0.1 0.1,-0.2 0,-0.1 0,-0.1 0.1,-0.1 0.1,0 0.1,0.2 0,0.2 z m 0.5,-0.7 v 0 c 0,0.1 0,0.1 0,0.2 0,0 0,0 0,-0.2 0,0.1 0,0.1 0,0 v 0 -0.1 0 c 0.2,-0.1 0.2,0 0.2,0.1 z m 0.4,-0.8 c 0,-0.2 0,-0.2 0,0 0,0.2 0.2,0.1 0.2,0 z m 0.1,-0.3 c 0,-0.2 0,-0.2 0,0 0,0.2 0.2,0.1 0.2,0 z"
     class="st0" /><path
     style="fill:#ffffff"
     inkscape:connector-curvature="0"
     id="path1466"
     d="m 170.7,46.2 c 0,0 0,-0.1 0,0 v 0 c 0,0 0,0 0,0 z"
     class="st0" /><path
     style="fill:#ffffff"
     inkscape:connector-curvature="0"
     id="path1468"
     d="m 177.1,46.4 c 0,0 0.1,0 0,0 -0.1,0 0,-0.1 0,0 z"
     class="st0" /><path
     style="fill:#ffffff"
     inkscape:connector-curvature="0"
     id="path1470"
     d="m 177.1,46.1 c 0,0 0,0 -0.1,-0.1 0,0.1 0,0.2 0,0.2 0.1,-0.1 0.1,-0.1 0.1,-0.1 z"
     class="st0" /><path
     style="fill:#ffffff"
     inkscape:connector-curvature="0"
     id="path1472"
     d="m 177,45 c 0,-0.2 0,-0.3 -0.1,-0.2 -0.1,0.1 0.1,0.1 0,0.3 -0.1,0.2 0,0.3 0.1,0.4 z"
     class="st0" /><path
     style="fill:#ffffff"
     inkscape:connector-curvature="0"
     id="path1474"
     d="m 183.7,46.6 c 0.1,0 0.1,0 0,0 -0.1,0 0,-0.1 0,0 z"
     class="st0" /><path
     style="fill:#ffffff"
     inkscape:connector-curvature="0"
     id="path1476"
     d="m 176.9,45.6 c 0.1,0.1 0.1,0.1 0.1,0 0,-0.1 0,-0.1 -0.1,0 z"
     class="st0" /><path
     style="fill:#ffffff"
     inkscape:connector-curvature="0"
     id="path1478"
     d="m 173.3,43.2 c 0,0 0,-0.1 0,-0.1 v 0 c 0,0 0,0 0,0.1 -0.1,0 -0.1,0.1 -0.1,0.1 0,0 0,-0.1 0.1,-0.1 z"
     class="st0" /><path
     style="fill:#ffffff"
     inkscape:connector-curvature="0"
     id="path1480"
     d="m 173.1,47.3 c 0.1,0 0.1,0 0.1,-0.1 0,-0.1 -0.2,0 -0.1,0.1 z"
     class="st0" /><path
     style="fill:#ffffff"
     inkscape:connector-curvature="0"
     id="path1482"
     d="m 177.4,46.4 c 0,-0.1 0,-0.1 -0.1,-0.1 0,0.1 0,0.2 0,0.3 v 0 c 0,-0.1 0,-0.2 0.1,-0.2 z"
     class="st0" /><path
     style="fill:#ffffff"
     inkscape:connector-curvature="0"
     id="path1484"
     d="m 183.3,47.3 c 0,-0.1 0,-0.1 0,0 0,-0.1 0,0.1 0,0 z"
     class="st0" /><path
     style="fill:#ffffff"
     inkscape:connector-curvature="0"
     id="path1486"
     d="m 183.6,47 c 0,-0.1 0,-0.1 -0.1,0 v 0.1 c 0,0 0.1,0 0.1,-0.1 0,0 0,0 0,0 z"
     class="st0" /><path
     style="fill:#ffffff"
     inkscape:connector-curvature="0"
     id="path1488"
     d="m 230.4,40.1 c 0,0.1 0,0.1 0,0.1 0.1,-0.1 0.1,-0.2 0.1,-0.2 -0.1,0 -0.1,0 -0.1,0.1 z"
     class="st0" /><path
     style="fill:#ffffff"
     inkscape:connector-curvature="0"
     id="path1490"
     d="m 230.6,39.8 c 0,0 0.1,0 0.1,-0.1 0,0 0,0 0,0 -0.1,0 -0.1,0.1 -0.1,0.1 0,0 0,0 0,0 z"
     class="st0" /><path
     style="fill:#ffffff"
     inkscape:connector-curvature="0"
     id="path1492"
     d="m 238.9,37.4 c 0.1,-0.1 0.2,-0.2 0.3,-0.3 -0.2,-0.2 -0.4,-0.4 -0.7,-0.4 -0.3,-0.1 -0.6,-0.1 -0.9,-0.1 -0.3,0 -0.6,0 -0.9,0.1 -0.2,0 -0.4,0.1 -0.7,0.1 0,-0.2 0.1,-0.4 0.1,-0.6 0,-0.2 0.1,-0.4 0.2,-0.5 0,0 0,0 0,-0.1 0,-0.1 0,-0.1 0,-0.2 0.5,-1.5 0.9,-3.1 1.2,-4.7 0.3,-1.6 0.8,-3.1 1.4,-4.6 0,0 0,0 0,-0.1 0.2,-0.2 0.3,-0.5 0.4,-0.8 0.1,-0.3 0.3,-0.5 0.5,-0.7 v -0.1 c 0.1,0 0.1,0 0.1,0.1 h -0.1 c 0,0.6 0,1.2 0,1.9 0,0.6 0,1.3 0.3,1.9 0.3,0.2 0.6,0.3 1,0.3 0.3,0 0.7,-0.1 1,-0.3 v -0.2 c -0.2,-0.4 -0.3,-0.9 -0.3,-1.4 0,-0.5 0,-1 0.1,-1.5 0,-0.5 0.1,-1 0.1,-1.5 0,-0.5 -0.1,-1 -0.3,-1.4 -0.1,0 -0.3,-0.1 -0.3,-0.3 -0.1,-0.1 -0.2,-0.2 -0.3,-0.2 -0.5,-0.2 -1,-0.2 -1.4,-0.1 -0.5,0.1 -1,0 -1.5,-0.1 0.1,0.1 0.1,0.2 0,0.2 -0.1,0 -0.1,0.1 -0.1,0.2 -0.4,0.2 -0.7,0.6 -0.8,1 -0.2,0.4 -0.4,0.9 -0.7,1.3 -0.9,2.2 -1.7,4.5 -2.3,6.9 -0.5,1.9 -1.1,3.9 -1.5,5.9 0,0 0,0.1 0,0.1 v 0 0 c -0.1,0 -0.1,0 -0.1,0.1 0,0.1 0,0.1 0,0.1 v 0.2 c -0.2,0.4 -0.5,0.9 -0.8,1.2 v 0 h -0.1 l -0.2,0.1 c 0,0 0,-0.1 0,-0.1 -0.1,0 -0.1,0.1 -0.2,0.1 l -0.4,0.2 c -0.1,0 -0.2,0 -0.3,0 0,0 -0.1,0 -0.2,-0.1 0.1,0.2 0.2,0.5 0.4,0.7 v 0 l 0.1,0.1 0.1,0.1 -0.1,0.2 c -0.1,-0.1 -0.1,-0.1 -0.1,0 0,0 0,0 -0.1,0 -0.8,1.2 -1.7,2.4 -2.6,3.5 -0.9,1.1 -1.8,2.2 -2.9,3.1 0.1,-0.1 0.2,-0.2 0.3,-0.3 0.1,-0.1 0.2,-0.2 0.2,-0.3 -0.3,0.2 -0.5,0.4 -0.7,0.7 -0.2,0.2 -0.5,0.4 -0.7,0.6 -0.2,-0.7 -0.2,-1.3 -0.2,-2 0,-0.7 0,-1.4 0.1,-2.2 0.1,-0.3 0.1,-0.6 0.1,-0.9 0,-0.3 0.1,-0.7 0.1,-1 0,-0.4 0.1,-0.8 0.2,-1.2 0.1,-0.4 0.2,-0.7 0.3,-1.1 0.1,-0.2 0.1,-0.4 0.1,-0.6 0,-0.2 0.1,-0.4 0.1,-0.6 0,-0.1 0.1,-0.1 0.1,-0.1 0.1,0 0.1,-0.1 0.1,-0.1 0.1,-0.3 0.1,-0.5 0.1,-0.8 0,-0.3 0,-0.6 0.1,-0.9 0.1,-0.2 0.1,-0.4 0.2,-0.7 0,-0.2 0.1,-0.5 0.2,-0.7 -0.2,-0.2 -0.4,-0.3 -0.6,-0.4 -0.3,-0.1 -0.5,-0.1 -0.8,-0.1 -0.3,0 -0.6,0 -0.8,0.1 l -0.6,0.1 c 0,0.1 0,0.1 0.1,0.1 0.1,0 0.1,0 0,0.1 -0.1,0 -0.1,0.1 -0.1,0.1 0,0.1 -0.1,0.1 -0.1,0.1 -0.2,0.7 -0.4,1.4 -0.6,2.1 -0.3,0.7 -0.4,1.4 -0.5,2.2 0.2,-0.3 0.3,-0.6 0.3,-0.9 0,-0.3 0.1,-0.6 0.3,-0.9 0,0.2 -0.1,0.5 -0.2,0.7 -0.1,0.2 -0.1,0.4 0,0.6 0,-0.2 0,-0.4 0.1,-0.8 0,-0.3 0.1,-0.6 0.3,-0.8 -0.1,0.3 -0.1,0.7 -0.3,1 -0.1,0.3 -0.2,0.7 -0.2,1.1 -0.3,0.9 -0.5,1.8 -0.6,2.7 -0.1,1.1 -0.2,2 -0.3,2.8 -0.1,-0.3 -0.1,-0.6 0,-0.8 0,-0.3 0,-0.5 0,-0.8 -0.1,0 -0.2,0 -0.2,0 0,0.1 0,0.1 0,0.2 0,0 0,0.1 0,0.1 0.1,0 0.1,0 0,-0.1 -0.1,-0.1 0,-0.1 0.1,0 -0.1,0.2 -0.1,0.5 -0.1,0.7 0,0.3 0,0.5 -0.1,0.8 0,-0.2 0,-0.4 0,-0.7 0,-0.2 0,-0.4 0,-0.5 -0.1,0.3 -0.1,0.5 -0.1,0.8 0,0.3 0,0.7 0,1 0,0.7 0.2,1.3 0.6,1.9 0.4,0.5 0.9,0.9 1.4,1.2 l 0.2,0.2 c 0,0.1 0.1,0.1 0.2,0.1 0.2,0.1 0.4,0.2 0.6,0.2 0.2,0 0.4,0.1 0.6,0.2 0.5,0 1,-0.1 1.5,-0.2 0.4,-0.2 0.8,-0.4 1.2,-0.6 0,-0.2 0.1,-0.4 0.3,-0.5 0.1,-0.1 0.3,-0.2 0.3,-0.4 0.1,0 0.1,0 0.2,0 0.1,0 0.1,0 0.1,-0.2 0,-0.2 0,-0.1 0.2,-0.1 0.2,0 0,0 0,-0.1 0,-0.1 0,-0.1 0.1,0 0,-0.1 0,-0.1 0,-0.2 l 1,-1.2 1,-1.2 c 0,-0.1 0,-0.1 0,-0.2 0,0 0,-0.1 0,-0.1 0,0 0.1,0 0.2,0 0.1,-0.4 0.3,-0.7 0.6,-1.1 0.1,-0.1 0.2,-0.3 0.3,-0.4 -0.1,0.3 -0.1,0.7 -0.2,1 -0.2,1.1 -0.4,2.2 -0.5,3.3 -0.1,1.1 -0.2,2.2 -0.2,3.3 0,1.2 0.2,2.3 0.6,3.5 0.5,0.2 0.9,0.5 1.1,0.9 v -0.1 c 0,0.1 0.1,0.1 0.2,0.1 0.1,0 0.2,0.1 0.2,0.2 0.3,-0.2 0.6,-0.2 0.8,-0.1 0.3,0.1 0.6,0 0.7,-0.2 -0.1,-0.2 -0.2,-0.5 -0.2,-0.8 0,-0.3 -0.1,-0.6 -0.2,-0.9 -0.1,-1.8 0,-3.7 0.3,-5.5 0.3,-1.8 0.6,-3.6 0.9,-5.6 0.2,-0.5 0.3,-1 0.4,-1.3 l 0.3,-1.2 c 0.5,-0.3 1,-0.5 1.5,-0.8 0.5,-0.3 1,-0.5 1.6,-0.7 -0.4,0.2 -0.2,0 0,-0.1 z m -18,7.5 c 0,0 0,-0.1 0,-0.1 0.1,0 0.1,0 0.1,0.1 0,0.1 -0.1,0 -0.1,0 z m 0.4,1.3 c -0.1,0.1 -0.1,0.1 -0.1,0 V 46 c 0.1,0 0.1,0 0,0.1 -0.1,0.1 0.1,0.1 0.1,0.1 z m -0.2,-1.4 c 0,-0.1 0,-0.2 0,-0.3 0,0.1 0,0.2 0,0.3 0,0.1 0,0.1 0,0.2 0,0 0,-0.1 0,-0.2 z m 0.1,0.6 c 0,0.2 0,0.3 -0.1,0.3 v -0.6 c 0.1,0.1 0.1,0.2 0.1,0.3 z m 0,0.5 v 0 0 c 0.1,-0.1 0.1,-0.1 0.1,0 0,0.1 -0.1,0 -0.1,0 z m 0.1,0.7 c 0,0 0,0 0,0 0.1,-0.2 0,-0.2 0,-0.2 0,0 0.1,0 0.1,0 0,0 0,0.1 -0.1,0.2 z m 1.1,-9.9 c 0,0 -0.1,0.1 -0.1,0.1 v 0 0.2 c -0.1,0 -0.1,0 -0.1,-0.1 0,-0.1 0,-0.1 0.1,-0.2 0.1,0.1 0.1,0 0.1,0 v -0.2 c 0.1,0.1 0.1,0.2 0,0.2 z m 0,-0.3 c 0,0 0,-0.1 0,-0.1 0,0 0,0 0,-0.1 0.1,0 0.1,0 0,0.2 0.1,0 0.1,0 0,0 z m 0.2,0.1 c 0,0.1 0,0.1 0,0.2 0,-0.1 -0.1,-0.1 0,-0.2 0.1,0 0.1,0 0,0 0,-0.1 0.1,0 0,0 z m 0.2,-0.9 c 0,0.1 -0.1,0.1 -0.1,0.2 0,-0.1 0,-0.2 0.1,-0.2 -0.1,-0.1 -0.1,-0.1 -0.1,-0.2 0.1,0.1 0.2,0.1 0.1,0.2 z m 0.3,-1.2 z m 5.4,8.7 c -0.1,0.1 -0.1,0 0,0 0.1,0 0.1,0 0,0 z m 2,-3 c 0.1,0 0.1,0 0.1,0.1 0,0.1 0,0.1 -0.1,-0.1 z m 0.1,7.6 c 0,0 0,0 0,0 0,0 0.1,0.2 0,0 z m 0.2,-1.3 c 0,0 0,0.1 0,0.1 -0.1,0 -0.1,0 0,-0.1 -0.1,0 0,-0.1 0,-0.1 0.1,0 0.1,0 0.1,0.1 0,0.1 0,0 -0.1,0 z m 3,-14.4 c 0,0 0.1,0 0.1,-0.1 0,-0.1 0,0.1 -0.1,0.1 0,0.1 0,0.1 0,0 0,0.1 0,0 0,0 z m -0.1,0.5 c 0.1,-0.1 0.1,-0.2 0,-0.3 0.1,0 0.2,0.1 0.1,0.2 l -0.1,0.3 c -0.1,0 -0.1,-0.1 0,-0.2 z m -0.3,0.9 c 0,-0.2 0.1,-0.3 0.2,-0.3 0,0 0,-0.1 0,-0.1 l 0.1,0.1 v 0 c -0.1,0.2 -0.1,0.3 -0.2,0.3 -0.1,0 0,0.1 0,0 0,-0.1 -0.1,0 -0.1,0 z m 0,0.1 c 0.1,0 0.1,0 0,0 0,0.2 0,0.2 0,0 z m -0.6,2.5 c 0,0 0.1,0 0,-0.1 v 0 c 0.1,-0.4 0.1,-0.7 0.2,-1.1 0.1,-0.3 0.2,-0.7 0.2,-1 0,0.3 0,0.7 -0.1,1 -0.1,0.3 -0.2,0.7 -0.3,1 0.1,0.1 0.1,0.1 0,0.2 0,0 -0.1,0 0,0 -0.1,0 0,0 0,0 z m 0,0.2 c 0,0.2 0,0.3 -0.1,0.5 -0.1,0 -0.1,0.1 0,0.1 0,0.1 0,0.1 0,0.2 v 0.2 l -0.1,0.1 0.1,-0.3 c 0,-0.4 0,-0.6 0.1,-0.8 z m -1.8,9.3 c 0,0.1 0,0.1 0,0 -0.1,-0.1 0,-0.1 0,0 z m 0,-0.4 c -0.1,0 -0.1,0 0,-0.1 0.1,0 0.1,0 0,0.1 z m 0,-0.3 c 0,-0.1 0,-0.1 0.1,-0.2 0,0 0,-0.1 0,-0.1 0,0 0.1,-0.1 0.1,0.1 0,0.2 -0.1,0.3 -0.2,0.2 z m 0.1,-0.8 c 0,0 0,0 0,0 0.2,0.1 0.1,0 0,0 v 0 c 0,0 0,0 0,0 0,0.2 0,0.1 0,0 z m 0.2,-0.3 c -0.1,0 -0.1,-0.1 0,-0.1 0,0 0,-0.1 0,-0.2 v 0 c 0.1,0.1 0,0.2 0,0.3 z m 0.1,-0.6 c 0,0 0,0 0,0 0,0.2 -0.1,0 -0.1,0 0,0 0,-0.1 0.1,0 0.1,-0.1 0,0 0,0 z m 0.1,-0.8 c 0,0.2 0,0.3 -0.1,0.3 0,0 0,0 0,-0.1 v -0.1 0 c 0,0 0,-0.1 0,-0.1 v -0.1 0 0 -0.1 0 0.1 z m 2.6,-10.9 c -0.1,0.2 -0.1,0.4 -0.2,0.5 0,-0.2 0,-0.4 0.2,-0.5 0,-0.1 0,-0.3 0.1,-0.5 0,0.1 0,0.2 -0.1,0.5 z m 0.2,-1 v -0.1 c 0.1,-0.1 0.1,-0.1 0.1,0 0,0.1 0,0.1 -0.1,0.1 z m 0.5,-1.4 c 0,0 0,-0.1 0,-0.2 0,0 0.1,0 0.1,0.1 0,0 0,0 0,0 0,0 0,0.1 -0.1,0.1 z"
     class="st0" /><path
     style="fill:#ffffff"
     inkscape:connector-curvature="0"
     id="path1494"
     d="m 227.7,47.5 c 0.1,0 0.1,0 0.1,-0.1 0,-0.1 -0.1,0.1 -0.1,0.1 z"
     class="st0" /><path
     style="fill:#ffffff"
     inkscape:connector-curvature="0"
     id="path1496"
     d="m 193.2,34.4 v 0 c 0,0 0,0 0,0 z"
     class="st0" /><path
     style="fill:#ffffff"
     inkscape:connector-curvature="0"
     id="path1498"
     d="m 225.7,46.1 c 0,0 0,0 0,0 0,0 0,0 0,0 z"
     class="st0" /><path
     style="fill:#ffffff"
     inkscape:connector-curvature="0"
     id="path1500"
     d="m 176.9,43.5 c 0,-0.1 0,-0.1 0,0 0,0.1 0,0.1 0,0 z"
     class="st0" /><path
     style="fill:#ffffff"
     inkscape:connector-curvature="0"
     id="path1502"
     d="m 242.2,34.4 v 0 c 0,0 0,0 0,0 z"
     class="st0" /><path
     style="fill:#ffffff"
     inkscape:connector-curvature="0"
     id="path1504"
     d="m 257.2,35.2 c -0.2,-0.1 -0.3,-0.2 -0.4,-0.1 -0.1,0.1 -0.2,0.2 -0.3,0.2 -0.1,0.2 -0.3,0.4 -0.5,0.6 -0.2,0.2 -0.3,0.4 -0.4,0.7 -0.2,0.1 -0.3,0.2 -0.4,0.3 -0.1,0.1 -0.2,0.3 -0.2,0.5 -0.1,0 -0.1,0 -0.1,0 0,0 0,0 -0.1,0 -0.1,0.3 -0.2,0.5 -0.5,0.7 -0.2,0.1 -0.4,0.4 -0.4,0.6 -0.1,0 -0.2,0 -0.3,0.2 -0.1,0.1 -0.1,0.3 -0.2,0.4 -0.2,0.1 -0.3,0.2 -0.4,0.3 -0.1,0.1 -0.2,0.3 -0.2,0.4 -0.1,-0.1 -0.1,0 -0.1,0 0,0.1 -0.1,0.2 -0.1,0.2 -0.2,0.2 -0.3,0.3 -0.4,0.5 -0.1,0.2 -0.3,0.3 -0.4,0.5 v 0 0 c -0.4,0.5 -0.8,0.9 -1.3,1.3 -0.5,0.4 -0.9,0.8 -1.3,1.3 v 0 c -0.1,0.1 -0.2,0.3 -0.4,0.3 -0.2,0.1 -0.3,0.2 -0.3,0.4 -0.1,-0.1 -0.3,0 -0.4,0.1 0,0 0,0 0,0 -0.1,0.1 -0.2,0.2 -0.3,0.3 -0.4,0.3 -0.8,0.6 -1.1,0.9 -0.4,0.3 -0.8,0.6 -1.2,0.9 -0.4,0.3 -0.9,0.5 -1.4,0.7 -0.5,0.2 -1,0.3 -1.6,0.3 -0.3,-0.4 -0.5,-0.8 -0.6,-1.3 -0.1,-0.5 -0.2,-1.1 -0.2,-1.7 0,-0.6 0,-1.1 0.1,-1.7 0.1,-0.5 0.2,-1 0.4,-1.4 0.4,-0.2 0.7,-0.3 1.1,-0.5 0.3,-0.2 0.7,-0.4 0.9,-0.7 0,0.1 0.1,0.1 0.1,0 0,-0.1 0.1,0 0.1,0 1.2,-1 2.3,-2.1 3.3,-3.3 1.1,-1.2 1.9,-2.7 2.5,-4.2 v 0 c 0,-0.1 0,-0.2 0,-0.2 v 0.2 c 0.1,-0.1 0.1,-0.3 0.1,-0.4 0,-0.1 0.1,-0.3 0.1,-0.4 0,-0.8 -0.4,-1.4 -1.1,-1.8 -0.7,-0.3 -1.4,-0.4 -2.2,-0.4 -0.1,-0.1 -0.2,-0.1 -0.4,-0.1 -0.1,0 -0.3,-0.1 -0.4,-0.1 -0.7,0.5 -1.3,1.1 -1.9,1.7 -0.6,0.6 -1.1,1.3 -1.5,2 l 0.1,0.1 c 0,0 -0.1,0 -0.1,-0.1 0,0 0,0 0,0 -0.1,0.1 -0.2,0.2 -0.2,0.3 0,0.1 -0.1,0.2 -0.1,0.3 0,-0.1 0,-0.1 0,-0.1 l -0.1,0.2 v 0 c 0.1,0 0,0.1 0,0.1 0,0 0,0 0,-0.1 l -1,1.6 c -0.4,0.7 -0.7,1.4 -1,2.1 -0.1,0.2 -0.2,0.3 -0.3,0.5 -0.1,0.1 -0.2,0.3 -0.3,0.5 -0.2,0.6 -0.4,1.2 -0.6,1.8 -0.2,0.6 -0.3,1.3 -0.4,1.9 -0.1,0.6 -0.1,1.3 0,1.9 0.1,0.6 0.3,1.3 0.6,1.8 0.2,0.3 0.3,0.5 0.5,0.8 l 0.6,0.8 c 0.2,0.3 0.4,0.5 0.6,0.7 0.2,0.2 0.5,0.4 0.7,0.7 l 0.5,0.2 c 0.2,0 0.3,0.1 0.4,0.2 0.1,0 0.2,0 0.3,0 l 0.3,0.1 h 0.4 c 0.1,0 0.3,0 0.4,0 0.6,0 1.3,-0.1 1.9,-0.4 0.5,-0.2 1,-0.5 1.5,-0.8 0.5,-0.3 0.9,-0.6 1.3,-1 0.4,-0.4 0.8,-0.7 1.2,-1.1 0,0 0,-0.1 0,-0.1 v 0 0 0 0 c -0.1,0.1 -0.1,0.1 -0.1,0 0,0 0.1,0 0.1,0 0,-0.1 0,-0.1 0,-0.1 0.8,-0.8 1.5,-1.6 2.3,-2.5 0.7,-0.9 1.4,-1.8 2.2,-2.7 0,-0.1 0,-0.3 0.1,-0.3 0.1,-0.1 0.1,-0.2 0,-0.3 0.1,0.1 0.1,0.1 0.1,0 0,-0.1 0,-0.1 0.1,-0.1 0.2,-0.5 0.4,-1 0.8,-1.4 0.4,-0.4 0.7,-0.9 0.7,-1.4 0.1,-0.2 0.2,-0.3 0.3,-0.5 0.1,-0.2 0.2,-0.4 0.1,-0.6 0.1,0 0.1,0 0.1,0 v 0 c 0,-0.1 0.1,-0.2 0.2,-0.2 0.1,-0.1 0.1,-0.2 0,-0.2 0,0.1 0,0.1 -0.1,0.1 0,-0.1 0,-0.1 0.1,-0.1 0.1,0 0.1,-0.1 0.1,-0.2 0,-0.1 0,-0.1 0,-0.2 -0.1,0 -0.1,0 -0.1,0.1 0,0.1 0,0.1 0,0 0.1,-0.1 0.1,-0.3 0.2,-0.5 -0.1,0.2 -0.1,0.1 -0.1,0 z m -7.4,-1.6 c 0,-0.1 0,-0.1 0,-0.2 0,0 0,0.1 0,0.2 0,0 0,0 0,0 0,0.1 0,0.1 0,0.2 -0.1,-0.1 -0.1,-0.2 0,-0.2 z m -5.5,-1.4 c 0,-0.1 0,-0.2 0.1,-0.1 0.1,0.1 0,0.1 -0.1,0.1 v 0 c 0,0 -0.1,0 0,0 z m -0.4,0.4 c 0,0 0,0 0,0 v 0 c 0,-0.1 0.1,-0.2 0.1,-0.2 0,0 0.1,0 0.1,0 0,0 -0.1,0.1 -0.1,0.1 0,0 0,0 -0.1,0.1 -0.1,-0.1 0,0.1 -0.1,0.1 -0.1,0 0.1,-0.1 0.1,-0.1 z m -0.2,0.3 c 0,-0.1 0,-0.1 0,0 0,-0.1 0,-0.1 0.1,-0.1 0.1,0 0,0 -0.1,0.1 v 0 0 c 0,0 0,0 0,0 0,-0.2 -0.1,0 0,0 z m -0.2,0 v 0 c 0,0 -0.1,-0.1 0,0 z m 0,0.3 c 0,0.1 0,0.1 0,0 0,-0.1 0,-0.1 0,0 z m -0.2,0.3 c 0,0 0,0 0,0 0,0 0,-0.2 0,0 z m -0.2,0.1 v 0 0 c 0,0 0,0.1 0,0 0,0 0,0 0,0 z m -0.1,0.3 v 0 0 0 0 0 0 c 0,0 -0.1,0 0,0 z m 1,3 c 0.5,-0.8 0.9,-1.6 1.2,-2.5 0.4,-0.5 0.9,-1 1.3,-1.5 0.4,-0.5 0.9,-1 1.5,-1.3 0.1,0.1 0.1,0.2 0.1,0.2 0,0.1 0,0.2 0.1,0.3 0,0.2 -0.1,0.5 -0.2,0.7 -0.1,0.2 -0.2,0.4 -0.2,0.6 -0.7,1.1 -1.5,2.2 -2.3,3.2 -0.8,1 -1.7,2 -2.7,2.8 0.3,-0.8 0.7,-1.7 1.2,-2.5 z m -1.4,-2.5 c 0,-0.1 0,-0.1 0.1,-0.1 0.1,0 0.1,-0.1 0.1,-0.1 0.1,0 0.1,0.1 0,0.2 -0.1,0 -0.2,0 -0.2,0 0,0.1 0,0.1 0,0.1 0,0 0,-0.1 0,-0.1 z m -0.3,0.3 c 0,-0.1 0.1,-0.2 0.2,-0.2 0,0.1 -0.1,0.2 -0.1,0.3 0,0.1 -0.1,0.2 -0.1,0.3 -0.1,-0.2 -0.1,-0.3 0,-0.4 z m -0.3,0.5 c 0,0 0.1,0 0.1,-0.1 0,-0.1 0.1,0.1 -0.1,0.1 0,0.1 0,0.1 -0.1,0.1 0,0 0.1,-0.1 0.1,-0.1 z m -3.2,7.6 c 0.1,-0.1 0.1,-0.1 0.1,0 0,0.1 0,0.1 -0.1,0 z m 1.3,-3.8 c -0.4,0.9 -0.8,1.9 -1,2.9 0.1,-1 0.4,-1.9 0.9,-2.8 0.4,-0.8 0.8,-1.7 1.2,-2.5 0,0 0.1,0 0.1,-0.1 -0.4,0.8 -0.8,1.6 -1.2,2.5 z m 9.8,4.3 v 0 c 0,-0.1 0,-0.1 0,0 v 0 c 0,-0.1 0,0 0,0 z m 3.1,-3.4 h 0.1 c 0,0 0,0 -0.1,0 z m 2.9,-1.3 c 0,0.1 0,0.1 0,0 0,-0.1 0,0 0,0 v 0 c 0,0 0,0 0,0 z m 0.1,-0.4 c 0,0 0,0 0,0 0,0 0,0.1 0,0 z m 0.6,-1.1 c 0,-0.1 0,-0.1 0,0 0,0.1 0,0.1 0,0 z"
     class="st0" /><path
     style="fill:#ffffff"
     inkscape:connector-curvature="0"
     id="path1506"
     d="m 228,47.3 c 0.1,0 0.1,0 0.1,-0.1 0,-0.1 -0.2,0 -0.1,0.1 z"
     class="st0" /><path
     style="fill:#ffffff"
     inkscape:connector-curvature="0"
     id="path1508"
     d="m 225.7,46.2 c 0,0 0,-0.1 0,0 v 0 c -0.1,0 -0.1,0 0,0 z"
     class="st0" /><path
     style="fill:#ffffff"
     inkscape:connector-curvature="0"
     id="path1510"
     d="m 225.7,46 c 0,0 0,0.1 0,0 v 0 c 0,0.1 0,0 0,0 z"
     class="st0" /><path
     style="fill:#ffffff"
     inkscape:connector-curvature="0"
     id="path1512"
     d="m 221.2,42.6 c -0.1,0 -0.2,0 -0.1,0.1 0,0 0.1,0.1 0.1,0.2 0,0 0,-0.1 0,-0.3 z"
     class="st0" /><path
     style="fill:#ffffff"
     inkscape:connector-curvature="0"
     id="path1514"
     d="m 228.3,47 c 0,-0.1 0,-0.1 0,0 -0.1,-0.1 0,0 0,0 z"
     class="st0" /><path
     style="fill:#ffffff"
     inkscape:connector-curvature="0"
     id="path1516"
     d="M 214.7,37.5 Z"
     class="st0" /><path
     style="fill:#ffffff"
     inkscape:connector-curvature="0"
     id="path1518"
     d="m 215,35.5 v 0 c 0,0 0,0.1 0,0 z"
     class="st0" /><path
     style="fill:#ffffff"
     inkscape:connector-curvature="0"
     id="path1520"
     d="m 213.9,45.9 c -0.1,0 0,0.1 0,0 0,0.1 0.1,-0.1 0,0 z"
     class="st0" /><path
     style="fill:#ffffff"
     inkscape:connector-curvature="0"
     id="path1522"
     d="m 207.7,35.2 c -0.1,0.1 -0.2,0.2 -0.3,0.2 -0.1,0.2 -0.3,0.4 -0.5,0.6 -0.2,0.2 -0.3,0.4 -0.4,0.7 -0.2,0.1 -0.3,0.2 -0.4,0.3 -0.1,0.1 -0.2,0.3 -0.2,0.5 -0.1,0 -0.1,0 -0.1,0 0,0 0,0 -0.1,0 -0.1,0.3 -0.2,0.5 -0.5,0.7 -0.2,0.1 -0.4,0.4 -0.4,0.6 -0.1,0 -0.2,0 -0.3,0.2 -0.1,0.1 -0.1,0.3 -0.2,0.4 -0.2,0.1 -0.3,0.2 -0.4,0.3 -0.1,0.1 -0.2,0.3 -0.2,0.4 -0.1,-0.1 -0.1,0 -0.1,0 0,0.1 -0.1,0.2 -0.1,0.2 -0.2,0.2 -0.3,0.3 -0.4,0.5 -0.1,0.2 -0.3,0.3 -0.4,0.5 v 0 0 c -0.4,0.5 -0.8,0.9 -1.3,1.3 -0.5,0.4 -0.9,0.8 -1.3,1.3 v 0 c -0.1,0.1 -0.2,0.3 -0.4,0.3 -0.2,0.1 -0.3,0.2 -0.3,0.4 -0.1,-0.1 -0.3,0 -0.4,0.1 0,0 0,0 0,0 -0.1,0.1 -0.2,0.2 -0.3,0.3 -0.4,0.3 -0.8,0.6 -1.1,0.9 -0.4,0.3 -0.8,0.6 -1.2,0.9 -0.4,0.3 -0.9,0.5 -1.4,0.7 -0.5,0.2 -1,0.3 -1.6,0.3 -0.3,-0.4 -0.5,-0.8 -0.6,-1.3 -0.1,-0.5 -0.2,-1.1 -0.2,-1.7 0,-0.6 0,-1.1 0.1,-1.7 0.1,-0.5 0.2,-1 0.4,-1.4 0.4,-0.2 0.7,-0.3 1.1,-0.5 0.3,-0.2 0.7,-0.4 0.9,-0.7 0,0.1 0.1,0.1 0.1,0 0,-0.1 0.1,0 0.1,0 1.2,-1 2.3,-2.1 3.3,-3.3 1.1,-1.3 1.9,-2.7 2.5,-4.2 v 0 c 0,-0.1 0,-0.2 0,-0.2 V 33 c 0.1,-0.1 0.1,-0.3 0.1,-0.4 0,-0.1 0.1,-0.3 0.1,-0.4 0,-0.8 -0.4,-1.4 -1.1,-1.8 -0.7,-0.3 -1.4,-0.4 -2.2,-0.4 -0.1,-0.1 -0.2,-0.1 -0.4,-0.1 -0.1,0 -0.3,-0.1 -0.4,-0.1 -0.7,0.5 -1.3,1.1 -1.9,1.7 -0.6,0.6 -1.1,1.3 -1.5,2 l 0.1,0.1 c 0,0 -0.1,0 -0.1,-0.1 0,0 0,0 0,0 -0.1,0.1 -0.2,0.2 -0.2,0.3 0,0.1 -0.1,0.2 -0.1,0.3 0,-0.1 0,-0.1 0,-0.1 l -0.1,0.2 v 0 c 0.1,0 0,0.1 0,0.1 0,0 0,0 0,-0.1 l -1,1.6 c -0.4,0.7 -0.7,1.4 -1,2.1 -0.1,0.2 -0.2,0.3 -0.3,0.5 -0.1,0.1 -0.2,0.3 -0.3,0.5 -0.2,0.6 -0.4,1.2 -0.6,1.8 -0.2,0.6 -0.3,1.3 -0.4,1.9 -0.1,0.6 -0.1,1.3 0,1.9 0.1,0.6 0.3,1.3 0.6,1.8 0.2,0.3 0.3,0.5 0.5,0.8 l 0.6,0.8 c 0.2,0.3 0.4,0.5 0.6,0.7 0.2,0.2 0.5,0.4 0.7,0.7 l 0.5,0.2 c 0.2,0 0.3,0.1 0.4,0.2 0.1,0 0.2,0 0.3,0 l 0.3,0.1 h 0.4 c 0.1,0 0.3,0 0.4,0 0.6,0 1.3,-0.1 1.9,-0.4 0.5,-0.2 1,-0.5 1.5,-0.8 0.5,-0.3 0.9,-0.6 1.3,-1 0.4,-0.4 0.8,-0.7 1.2,-1.1 0,0 0,-0.1 0,-0.1 v 0 0 c 0,0 -0.1,0.1 -0.1,0.1 -0.1,0.1 -0.1,0.1 -0.1,0 0,0 0.1,0 0.1,0 0,-0.1 0,-0.1 0,-0.1 0.8,-0.8 1.5,-1.6 2.3,-2.5 0.7,-0.9 1.4,-1.8 2.2,-2.7 0,-0.1 0,-0.3 0.1,-0.3 0.1,-0.1 0.1,-0.2 0,-0.3 0.1,0.1 0.1,0.1 0.1,0 0,-0.1 0,-0.1 0.1,-0.1 0.2,-0.5 0.4,-1 0.8,-1.4 0.4,-0.4 0.7,-0.9 0.8,-1.4 0.1,-0.2 0.2,-0.3 0.3,-0.5 0.1,-0.2 0.2,-0.4 0.1,-0.6 0.1,0 0.1,0 0.1,0 v 0 c 0,-0.1 0.1,-0.2 0.2,-0.2 0.1,-0.1 0.1,-0.2 0,-0.2 0,0.1 0,0.1 -0.1,0.1 0,-0.1 0,-0.1 0.1,-0.1 0.1,0 0.1,-0.1 0.1,-0.2 0,-0.1 0,-0.1 0,-0.2 -0.1,0 -0.1,0 -0.1,0.1 0,0.1 0,0.1 0,0 0.1,-0.1 0.1,-0.3 0.2,-0.5 0,-0.1 0.1,-0.3 0.1,-0.4 -0.3,0.1 -0.5,0.1 -0.6,0.2 z m -7,-1.6 c 0,-0.1 0,-0.1 0,-0.2 0.1,0 0.1,0.1 0,0.2 0,0 0,0 0,0 0,0.1 0,0.1 0,0.2 0,-0.1 0,-0.2 0,-0.2 z m -5.5,-1.4 c 0,-0.1 0,-0.2 0.1,-0.1 0.1,0.1 0.1,0.1 -0.1,0.1 v 0 c 0,0 0,0 0,0 z m -0.3,0.4 c 0,0 0,0 0,0 v 0 c 0,-0.1 0.1,-0.2 0.1,-0.2 0,0 0.1,0 0.1,0 0,0 -0.1,0.1 -0.1,0.1 0,0 -0.1,0 -0.1,0.1 -0.1,-0.1 0,0.1 -0.1,0.1 -0.1,0 0,-0.1 0.1,-0.1 z m -0.2,0.3 c 0,-0.1 0,-0.1 0,0 0,-0.1 0,-0.1 0.1,-0.1 0.1,0 0,0 -0.1,0.1 v 0 0 c 0,0 0,0 0,0 0,-0.2 -0.1,0 0,0 z m -0.3,0 v 0 c 0,0 0,-0.1 0,0 z m 0,0.3 c 0,0.1 0,0.1 0,0 0,-0.1 0,-0.1 0,0 z m -0.1,0.3 c 0,0 0,0 0,0 0,0 0,-0.2 0,0 z m -0.2,0.1 v 0 0 c 0,0 0,0.2 0,0 0,0.1 -0.1,0 0,0 z m -0.2,0.3 v 0 0 0 0 0 0 c 0,0 0,0 0,0 z m 1,3 c 0.5,-0.8 0.9,-1.6 1.2,-2.5 0.4,-0.5 0.9,-1 1.3,-1.5 0.4,-0.5 0.9,-1 1.5,-1.3 0.1,0.1 0.1,0.2 0.1,0.2 0,0.1 0,0.2 0.1,0.3 0,0.2 -0.1,0.5 -0.2,0.7 -0.1,0.2 -0.2,0.4 -0.2,0.6 -0.7,1.1 -1.5,2.2 -2.3,3.2 -0.8,1 -1.7,2 -2.7,2.8 0.3,-0.8 0.7,-1.7 1.2,-2.5 z m -1.3,-2.4 c 0,-0.1 0,-0.1 0.1,-0.1 0.1,0 0.1,-0.1 0.1,-0.1 0.1,0 0.1,0.1 0,0.2 -0.1,-0.1 -0.2,0 -0.2,0 0,0.1 0,0.1 0,0.1 0,0 -0.1,-0.2 0,-0.1 z m -0.4,0.3 c 0,-0.1 0.1,-0.2 0.2,-0.2 0,0.1 -0.1,0.2 -0.1,0.3 0,0.1 -0.1,0.2 -0.1,0.3 -0.1,-0.2 -0.1,-0.3 0,-0.4 z m -0.2,0.5 c 0,0 0.1,-0.1 0.1,-0.1 0,0 0,0 -0.1,0.1 0,0.1 0,0.1 -0.1,0.1 -0.1,0 -0.1,-0.1 -0.1,-0.1 0.1,-0.1 0.1,-0.1 0.2,0 z m -3.2,7.6 c 0.1,-0.1 0.1,-0.1 0.1,0 0,0.1 0,0 -0.1,0 z m 1.3,-3.8 c -0.4,0.9 -0.8,1.9 -1,2.9 0.1,-1 0.4,-1.9 0.9,-2.8 0.4,-0.8 0.8,-1.7 1.2,-2.5 0,0 0.1,0 0.1,-0.1 -0.4,0.7 -0.8,1.5 -1.2,2.4 z m 9.7,4.3 v 0 c 0,-0.1 0,-0.1 0,0 v 0 c 0,-0.1 0,-0.1 0,0 z M 204,40 h 0.1 c 0,0 -0.1,-0.1 -0.1,0 z m 2.9,-1.3 c 0,0 0,0.1 0,0 0,-0.1 0,0 0,0 v 0 c 0,0 0,-0.1 0,0 z m 0.1,-0.4 c 0,0 0,0 0,0 0,0 0,0 0,0 z m 0.5,-1.1 c 0,-0.1 0,-0.1 0,0 0,0.1 0,0 0,0 z"
     class="st0" /><path
     style="fill:#ffffff"
     inkscape:connector-curvature="0"
     id="path1524"
     d="m 215.2,33.8 c 0,0 0,0 0,0 0,-0.2 0,-0.1 0,0 z"
     class="st0" /><path
     style="fill:#ffffff"
     inkscape:connector-curvature="0"
     id="path1526"
     d="m 220.1,23.7 c 0,-0.1 -0.1,-0.2 -0.1,-0.2 -0.4,-0.1 -0.8,-0.1 -1.2,-0.3 -0.4,-0.1 -0.9,-0.1 -1.3,0.2 -0.1,-0.1 -0.2,-0.1 -0.3,-0.1 0.1,0.2 0.1,0.4 0,0.5 -0.1,0.2 -0.1,0.4 0,0.6 -0.2,0.3 -0.3,0.6 -0.3,0.9 0,0.3 -0.1,0.6 -0.2,0.9 0,0.1 0,0.1 0,0.1 0,0 0,0.1 0,0.1 -0.1,0 -0.1,0.1 -0.1,0.2 0,0.1 0,0.2 0,0.3 -0.1,0.1 -0.1,0.2 -0.1,0.3 0,0.1 0,0.2 0.1,0.3 h -0.1 -0.1 c 0,0.1 0,0.1 0,0.1 0,0 0.1,0.1 0.1,0.2 -0.2,0.1 -0.2,0.3 -0.2,0.5 0,0.2 0,0.4 0,0.5 0,-0.1 0,-0.1 0.1,-0.1 0,0 0,0 0,0 0,0.1 0,0.1 0,0.2 0,0 0,0.1 -0.1,0.1 v 0 0 0 c 0,0.2 0,0.3 0,0.5 0,0.1 -0.1,0.3 -0.1,0.5 0,0.2 0.1,0 0.1,-0.1 0,-0.1 0,-0.1 0.1,-0.1 0,0.1 0,0.2 0,0.3 0,0.1 0,0.2 -0.1,0.2 0,-0.1 0,-0.1 0,-0.2 0,0 0,0 -0.1,0 v 0.2 l 0.1,0.1 c 0,0.1 -0.1,0.1 -0.1,0.1 0,0 -0.1,0 -0.1,0 0,0 0,0.1 0,0.1 0,0 0,0.1 0.1,0.1 -0.2,0.1 -0.3,0.2 -0.2,0.4 0,0.2 0,0.4 -0.1,0.5 0.1,0 0.2,0 0.2,0.2 h -0.2 c 0,0.1 0,0.1 0,0.2 0,0.1 0.1,0.2 0.1,0.2 -0.1,0.1 -0.1,0.1 -0.1,0 0,-0.1 0,0 -0.1,0 0,0.2 0,0.4 -0.1,0.5 h 0.1 c 0,0 0,0.1 0,0.1 0,0 0,0.1 0,0.1 0.1,0 0.1,0 0.1,0.1 0,0.1 -0.1,0.1 -0.1,0.1 0,0 0,0.1 0,0.2 0,0.1 -0.1,0.2 -0.2,0.3 0.1,0.1 0.1,0.2 0,0.3 0,0.1 -0.1,0.2 -0.1,0.3 0,-0.1 0,-0.2 0,-0.2 0,0.1 0,0.1 0,0.2 0,0.1 0,0.1 0,0.2 0,0.1 0,-0.1 0.1,-0.1 v 0.1 h -0.1 c -0.1,0.2 -0.1,0.4 -0.2,0.6 -0.1,0.1 -0.1,0.3 0,0.4 v 0 c 0.1,-0.1 0.1,-0.1 0,0 h -0.1 c 0,0.1 0.1,0.1 0.1,0.2 -0.2,0 -0.3,0.1 -0.2,0.2 0.1,0.1 0.1,0 0.1,0 0,0 0,-0.1 0,0 0,0.1 0,0.1 0,0.2 0,0.1 0,0.1 -0.1,0.1 0,0.1 0,0.2 0,0.2 0,0 -0.1,0 -0.1,-0.1 0,0 0,0 0,0 0,0 0,-0.1 0,-0.1 -0.1,0 -0.1,-0.1 0,-0.1 0.1,0 0,-0.1 0,-0.1 -0.1,0.2 -0.1,0.3 0,0.5 0.1,0.2 0.1,0.3 0,0.4 0,0 0,-0.1 -0.1,-0.1 0,0 0,0 0,0 0.1,0.1 0.1,0.1 0,0.1 -0.1,0 -0.1,0.1 -0.1,0.1 0.1,0 0.1,0 0,0.1 0.1,0 0.1,0 0.1,0 0,0 0,0 0.1,0 0,0 0,0.1 -0.1,0.1 0,0 0,0 0,0 0,0 -0.1,0 -0.1,0.1 0,0 0,0 0,0 0.1,0 0.1,0 0.1,0 0,0 0.1,0 0.1,0 -0.1,0 -0.2,0.1 -0.2,0.2 0,0 0.1,0 0.2,0 0.1,0 -0.1,0 0,0 0.1,0 0,0 0,0.1 0,0.1 -0.1,0 -0.1,0 0,0 -0.1,-0.1 0,-0.2 -0.1,0.1 -0.1,0.2 -0.1,0.3 -0.1,0.2 0,0.4 0.1,0.6 -0.1,0.1 -0.1,0.2 0,0.4 0,0.2 0,0.3 -0.1,0.4 0,-0.1 0,-0.1 -0.1,-0.1 0,0.2 0,0.3 -0.1,0.4 0.1,0 0.1,0 0.1,-0.1 0,-0.1 0,-0.1 0.1,-0.2 0,0.3 0,0.6 0,0.8 0,0.2 -0.1,0.4 -0.2,0.6 0,0 0,-0.1 0,-0.1 -0.1,0.1 -0.1,0.2 0,0.3 v 0 c 0,0.1 0,0.1 0,0.2 0,0.1 0,0.1 -0.1,0.1 0,0 0,-0.1 0,-0.1 0,0 0,-0.1 -0.1,-0.1 v 0.4 c 0.1,-0.1 0.1,0 0.1,0 0,0 0,0.1 0,0.1 0,0 0,-0.1 0,-0.1 0,0 0,-0.1 0,-0.1 -0.1,0.2 0,0.4 0.1,0.6 l -0.1,0.1 c 0,0.1 -0.1,0.1 -0.1,0.1 0.1,0 0.2,0.1 0.2,0.2 0,0 0,0 0,0 0,0.1 0,0.2 -0.1,0.3 -0.1,-0.1 -0.1,-0.3 0,-0.5 -0.2,0 -0.2,0.1 -0.1,0.2 0.1,0.1 0.1,0.2 0,0.3 0,0 0,0 0,0 0,0.1 0.1,0.1 0.2,0.1 0.1,0 0.1,0 0,0.1 -0.1,0.1 -0.1,0 -0.1,0 v 0 c 0,0 0,0.1 -0.1,0.1 -0.1,0 -0.1,0 0,0.1 0.1,0.1 0.1,-0.1 0.1,0 0,0 0.1,0.1 0.1,0.1 -0.1,0.1 -0.1,0.1 -0.1,0.1 0,0 0,0.1 0,0.1 -0.1,0 -0.1,-0.1 0,-0.1 0.1,0 0,-0.1 -0.1,-0.1 0,0.1 0,0.3 0,0.4 l 0.1,0.4 c -0.1,-0.1 -0.1,-0.1 -0.1,0 0,0 0,0.1 0,0.1 0,0 0.1,0 0.1,0 0,0 0,0 0,0 l -0.2,0.3 c 0,0.1 0,0.2 0.1,0.2 -0.1,0 -0.2,0.1 -0.2,0.2 0,0.1 0,0.2 0.1,0.3 0.1,0 0.1,0 0,-0.1 -0.1,-0.1 0,-0.1 0.1,-0.1 0,0.1 0,0.1 0,0.2 0,0.1 0,0.1 -0.1,0.1 -0.1,0 -0.1,0.1 0,0.1 0.1,0 0.1,0 0.1,0.1 0,0.1 -0.1,0 -0.1,-0.1 0,-0.1 -0.1,0 -0.1,0.1 0,0.1 0.1,0 0,0.1 0,0 0,0.1 0,0.2 0,0 0,0 0.1,0 0.1,0 0.1,0 0.1,0.1 0,0.1 -0.1,0 -0.1,0 0,0 0.1,0.1 0.1,0.1 h -0.1 c 0,0.2 0,0.4 0,0.5 0,0.2 0,0.4 0.1,0.5 0,0 0,0 -0.1,0 0.1,0.2 0.2,0.4 0.2,0.6 0,0.2 0,0.4 0.1,0.6 0,0.3 0,0.7 0.2,1 0.2,0.3 0.4,0.6 0.5,0.8 0.3,0.4 0.7,0.6 1.2,0.8 l 1.4,0.5 c 0,0 0,0 0.1,0 0.1,0 0.1,0 0.1,0.1 0.4,0 0.7,0 1.1,-0.1 0.3,-0.1 0.6,-0.2 0.9,-0.4 -0.1,0 -0.1,0 -0.1,0 0.1,-0.1 0.2,-0.1 0.2,-0.1 0.1,0 0.1,-0.1 0.1,-0.3 0,-0.2 -0.1,-0.1 -0.1,0 0,0.1 0,0.1 0,0 0,0 0.1,-0.1 0.1,-0.1 0,0 0,-0.1 0,-0.1 H 220 c 0.1,-0.2 0.1,-0.5 0,-0.7 -0.1,-0.2 -0.1,-0.4 0.1,-0.5 0,0 -0.1,0 -0.1,0 0.1,-0.1 0.1,-0.2 0,-0.3 -0.1,-0.1 -0.1,-0.3 0,-0.4 v 0 c -0.4,0.2 -0.7,0.6 -0.9,0.9 -0.2,0.4 -0.6,0.7 -1,0.8 -0.2,-0.5 -0.4,-1.1 -0.4,-1.6 -0.1,-0.6 -0.1,-1.2 -0.1,-1.8 0,-0.6 0,-1.2 0.1,-1.8 0,-0.6 0,-1.2 0,-1.6 0.2,-0.3 0.2,-0.6 0.2,-0.9 -0.1,-0.3 0,-0.6 0.1,-0.9 -0.1,-0.5 0,-0.9 0.1,-1.4 0.1,-0.5 0.2,-0.9 0.2,-1.4 0.2,-0.5 0.2,-0.9 0.3,-1.4 0,-0.4 0.1,-0.9 0.2,-1.3 0,0 0,0 0,-0.1 0.4,-1.5 0.7,-3.1 1,-4.7 0.3,-1.6 0.5,-3.2 0.7,-4.8 0.1,-0.3 0.2,-0.7 0.2,-1 0,-0.4 0,-0.8 -0.1,-1.2 -0.1,0.1 -0.2,0.2 -0.3,0.1 -0.1,-0.1 -0.3,0 -0.2,-0.1 z m -3.7,4.4 h 0.1 v 0.1 h -0.1 z m 0,0.3 c 0,0 0,0 0,0 0,0 0,0.1 0,0 z m -0.1,0.6 z m -0.2,0.4 c 0,0 0,0 0.1,0 0.1,0 0,0 -0.1,0 z m -0.3,2.1 c 0,-0.1 0,-0.2 0,-0.4 0,-0.1 0,-0.2 0.1,-0.3 0.1,0.1 0.1,0.2 0,0.4 -0.1,0.2 -0.1,0.3 -0.1,0.3 z m 0,0.4 c 0.1,0.1 0.1,0.1 0,0.1 -0.1,0 -0.1,0 0,-0.1 z m -0.2,0.8 v -0.2 0 z m -0.4,2.1 c 0,-0.1 0,-0.1 0.1,-0.1 0,0.2 0,0.3 -0.1,0.3 0,-0.1 0,-0.2 -0.1,-0.2 z m -0.1,0.6 c 0,-0.1 0,-0.1 0,-0.1 0,0 0.1,-0.1 0.1,-0.2 0,-0.1 0.1,0 0.1,0.1 -0.1,0.1 -0.1,0.2 -0.2,0.2 -0.1,0 -0.1,0 0,0 z m -0.2,1.6 v -0.1 0 z m -0.3,1.2 c 0,-0.1 0,-0.3 0,-0.4 h 0.1 c 0,0.1 0,0.2 0,0.2 0.1,0.2 0,0.2 -0.1,0.2 z m -0.3,3.4 c 0,-0.1 0,-0.1 0,0 0,0.1 0,0.1 0,0 z m 0,2.3 c 0,0 0,0 -0.1,0 -0.1,0 0.1,0 0.1,0 z m -0.3,3.4 c 0,0 0,-0.1 0,0 0,0.1 0,0 0,0 v 0 c 0,0 0,0 0,0 z m 0,-1 c 0,0 0,0 0,0 0,-0.1 0,-0.2 0,-0.2 0,0.1 0,0.2 0,0.2 z m 0,1.4 c 0,0 0.1,0 0,0 0.1,0.1 0.1,0.1 0,0 z m 0.1,-3.1 c 0,-0.1 0,-0.2 0,-0.4 0.1,0.1 0.1,0.2 0.1,0.3 0,0.1 -0.1,0.2 -0.1,0.3 0,0 0,-0.1 0,-0.2 z m 0,0.6 c -0.1,-0.1 -0.1,-0.1 0,0 0.1,-0.1 0.1,-0.1 0,-0.2 -0.1,-0.1 0.1,0.1 0.1,0.2 0,0.1 0.1,0.1 0,0.1 z m 0,0.2 z m -0.1,0.5 c 0,0 0.1,-0.1 0,-0.1 -0.1,0 0.1,0 0,0.1 0.1,0 0,0.1 0,0.1 0.1,0 0.1,-0.1 0.2,-0.1 z m 0.1,0.7 c 0,0.1 0,0.1 0,0 0,-0.1 0.2,-0.1 0.2,0 z m 0,0.4 c -0.1,0 -0.1,0 0,-0.1 0.2,0.1 0.2,0.1 0.2,0.1 z m 0.1,-3.5 c 0,0.1 -0.1,0.2 -0.1,0.3 -0.1,-0.1 -0.1,-0.2 -0.1,-0.3 0,-0.1 0,-0.2 0.1,-0.3 0.1,0 0.2,0.1 0.2,0.2 0,0 0,0 0,0 z m 0.1,-0.6 c 0,0.1 -0.1,0.2 -0.1,0.3 -0.1,-0.1 -0.1,-0.2 0,-0.3 0,-0.1 0.1,-0.2 0.1,-0.3 0.1,0.1 0.2,0.2 0.2,0.3 z m -0.1,-0.5 c 0,-0.1 0,-0.1 0,-0.1 0,0 0,-0.1 0,-0.1 0,0 0.1,0 0.1,0.1 0,0.1 0.2,0.1 0.1,0.1 z m 0.1,-0.2 c -0.1,0 -0.1,-0.1 -0.1,-0.2 0,-0.1 0,-0.1 0,-0.2 0.1,0.1 0.1,0.1 0.1,0.2 0,0.1 0.1,0.2 0.2,0.3 z m 0.1,-1.7 c -0.1,0.2 -0.1,0.4 0,0.5 v 0 c 0,0.1 0,0.1 0,0.2 0,0.1 0,0.2 0,0.2 -0.1,0 -0.1,-0.1 -0.1,-0.2 0,-0.1 0.1,-0.2 0.1,-0.2 0,-0.1 0,-0.3 0,-0.5 0,0 0.1,-0.2 0.1,-0.3 0.2,0.1 0.2,0.2 0.1,0.3 z m 0.2,-1 c -0.1,0.2 -0.1,0.5 -0.1,0.7 -0.1,-0.2 -0.1,-0.5 0,-0.7 0,-0.2 0.1,-0.5 0.2,-0.7 0.1,0.2 0.1,0.5 0.1,0.7 z m 0.2,-1.2 c -0.1,0.1 -0.1,0.3 0,0.4 -0.1,-0.1 -0.2,-0.2 -0.1,-0.3 0.1,-0.1 0.1,-0.2 0.1,-0.4 0.2,0.1 0.2,0.2 0.2,0.3 z m 0,-0.6 -0.1,0.3 c -0.1,-0.1 -0.1,-0.1 0,-0.2 0,-0.1 0,-0.2 0,-0.3 0.1,-0.1 0.2,-0.1 0.3,0 0.1,0.1 0.1,0.2 0,0.3 v 0 z m 0.6,-4 c 0,0.1 -0.1,0.2 -0.1,0.2 -0.1,0.6 -0.1,1.2 -0.2,1.8 -0.1,0.6 -0.1,1.1 -0.1,1.7 0,-0.6 0,-1.2 0.1,-1.8 0.1,-0.5 0.2,-1.1 0.4,-1.7 0.3,-0.9 0,-0.1 -0.1,-0.2 0.1,-0.1 0.1,-0.2 0.2,-0.3 0,0.1 0,0.2 0,0.3 z m 0.1,-0.5 h -0.1 v -0.1 z m 0.2,-1 c 0,0.3 -0.1,0.5 -0.3,0.8 0.1,-0.3 0.1,-0.5 0.1,-0.8 0,-0.3 0.1,-0.5 0.2,-0.8 0,0.3 0.1,0.6 0.1,0.8 z m 0.2,-1.3 c 0.1,0 0.1,0.1 0.1,0.2 0,0.1 -0.1,0.2 -0.1,0.2 0,-0.1 0,-0.1 0,-0.2 -0.1,-0.1 -0.1,-0.1 0,-0.2 0,-0.2 0,-0.3 0.1,-0.5 0.1,0 0.1,0.1 0.1,0.3 0,0.2 0.2,0.2 0.1,0.2 z m 0.1,-0.6 c 0,-0.1 0,-0.1 0,-0.1 v 0 c 0,0 0,0 0,0.1 z m 0.1,-0.2 V 30 29.9 c 0,0 0,0 0,0.1 0,0.1 0.2,0.1 0.2,0.1 z m 0.2,-0.7 c 0,0.1 -0.1,0.2 -0.2,0.2 0.1,-0.1 0.1,-0.3 0.1,-0.4 0.3,0 0.3,0.1 0.2,0.2 z m 0.2,-1.1 c 0,0.1 -0.1,0.2 -0.2,0.3 0,-0.2 0.1,-0.3 0.1,-0.5 0.3,0 0.3,0.1 0.2,0.2 z m 0,-0.4 z m 0.2,-0.5 h -0.1 v -0.1 h 0.1 z m 2.9,21.7 v 0 c 0,0.1 0,0.1 0,0 z"
     class="st0" /><path
     style="fill:#ffffff"
     inkscape:connector-curvature="0"
     id="path1528"
     d="m 215.6,31.7 c 0,0 0,0 0,-0.1 -0.1,0 -0.1,0 -0.1,0.1 0,0.1 0,0.1 0,0.1 0,0 0,-0.1 0,-0.1 0,0 0.1,0 0.1,0 z"
     class="st0" /><path
     style="fill:#ffffff"
     inkscape:connector-curvature="0"
     id="path1530"
     d="m 215.5,33 c -0.1,0 -0.1,0 -0.1,0.1 0,0.1 0,0.1 0.1,0.1 -0.1,0 -0.1,-0.1 0,-0.2 0,0.1 0,0 0,0 z"
     class="st0" /><path
     style="fill:#ffffff"
     inkscape:connector-curvature="0"
     id="path1532"
     d="m 215.9,30.3 c 0,0 0.1,0 0.1,-0.1 -0.1,0 -0.2,0 -0.1,0.1 z"
     class="st0" /><path
     style="fill:#ffffff"
     inkscape:connector-curvature="0"
     id="path1534"
     d="m 173.4,47 c 0,-0.1 0,-0.1 0,0 -0.1,-0.1 0,0 0,0 z"
     class="st0" /><path
     style="fill:#ffffff"
     inkscape:connector-curvature="0"
     id="path1536"
     d="m 160.3,34.1 c 0,0 0,-0.1 0.1,-0.1 0,0 0,-0.1 -0.1,-0.1 -0.1,0.1 -0.1,0.1 0,0.2 -0.1,-0.1 -0.1,0 0,0 z"
     class="st0" /><path
     style="fill:#ffffff"
     inkscape:connector-curvature="0"
     id="path1538"
     d="m 160.4,33.4 c 0,-0.1 0,-0.1 -0.1,-0.1 -0.1,0 0,0.1 0,0.1 0,0 0,0.1 0,0.1 0.1,0.1 0.1,0 0.1,-0.1 z"
     class="st0" /><path
     style="fill:#ffffff"
     inkscape:connector-curvature="0"
     id="path1540"
     d="m 176.9,42.7 c 0,-0.2 0,-0.2 0,0 0,0.2 0,0.1 0,0 z"
     class="st0" /><path
     style="fill:#ffffff"
     inkscape:connector-curvature="0"
     id="path1542"
     d="m 159,44 c 0,-0.1 0,-0.1 -0.1,0 -0.1,0.1 0.1,0.1 0.1,0 z"
     class="st0" /><path
     style="fill:#ffffff"
     inkscape:connector-curvature="0"
     id="path1544"
     d="m 166.2,41.5 v 0 c 0,-0.1 0,0 0,0 z"
     class="st0" /><path
     style="fill:#ffffff"
     inkscape:connector-curvature="0"
     id="path1546"
     d="m 159.5,39.5 c 0,0 -0.1,0 -0.1,-0.1 v 0.2 c 0,0.1 0.1,0.1 0.1,-0.1 z"
     class="st0" /><path
     style="fill:#ffffff"
     inkscape:connector-curvature="0"
     id="path1548"
     d="m 159.3,41.9 c 0,-0.1 0,-0.1 0,-0.1 v 0.1 0 0 c 0,0.1 0,0.1 0,0 z"
     class="st0" /><path
     style="fill:#ffffff"
     inkscape:connector-curvature="0"
     id="path1550"
     d="m 159.5,40.1 c 0,-0.1 0,-0.1 0,0 0,0 0,0.1 -0.1,0.2 v 0.1 c 0,-0.1 0.1,-0.2 0.1,-0.3 z"
     class="st0" /><path
     style="fill:#ffffff"
     inkscape:connector-curvature="0"
     id="path1552"
     d="m 159.6,38.8 v 0 c -0.1,-0.1 -0.1,-0.1 -0.1,-0.1 0,0 0,0.1 0.1,0.1 z"
     class="st0" /><path
     style="fill:#ffffff"
     inkscape:connector-curvature="0"
     id="path1554"
     d="m 159.6,38.5 c -0.1,0.1 -0.1,0.1 0,0.2 v 0 c 0,-0.1 0,-0.2 0,-0.2 z"
     class="st0" /><path
     style="fill:#ffffff"
     inkscape:connector-curvature="0"
     id="path1556"
     d="m 166.3,41.5 v 0 c 0,0 0,0.1 -0.1,0.1 v 0 c 0,0.3 0,0.5 0.1,0.8 0.1,-0.6 0.2,-1.2 0.3,-1.8 0.1,-0.6 0.2,-1.1 0.4,-1.7 -0.2,0.2 -0.3,0.6 -0.3,0.9 0,0.4 -0.1,0.7 -0.3,1 0,-0.1 0,-0.2 0,-0.2 0,0 0,-0.1 0,-0.1 -0.2,0.3 -0.2,0.6 -0.2,0.9 v 0.1 0 c -0.1,0 0.1,-0.1 0.1,0 z m 0,-0.4 0.1,-0.3 c 0,0.1 0,0.2 0,0.3 0,0.1 -0.1,0.2 -0.1,0.3 -0.1,-0.1 -0.1,-0.2 0,-0.3 z"
     class="st0" /><path
     style="fill:#ffffff"
     inkscape:connector-curvature="0"
     id="path1558"
     d="m 166.2,42 c 0,-0.1 0,-0.1 0,-0.1 0,0 0,0.1 0,0.1 0,0.1 0,0.1 0,0.2 0,-0.1 0,-0.1 0,-0.2 z"
     class="st0" /><path
     style="fill:#ffffff"
     inkscape:connector-curvature="0"
     id="path1560"
     d="m 169.8,29.9 c 0.3,0 0.5,0 0.8,-0.2 0.2,-0.1 0.5,-0.2 0.7,-0.2 l 0.5,-0.4 c 0.2,-0.2 0.3,-0.3 0.5,-0.5 0.1,-0.1 0.1,-0.1 0.1,0 0,0.1 0.1,0.1 0.1,0 0.1,-0.2 0.1,-0.4 0.1,-0.6 0,-0.2 0.1,-0.4 0.1,-0.7 -0.2,-0.5 -0.7,-1 -1.2,-1.1 -0.4,-0.1 -0.8,0 -1.1,0.2 -0.3,0.2 -0.6,0.3 -0.9,0.3 0,0.5 0,1.1 0.1,1.6 0,0.6 0.1,1.1 0.2,1.6 z"
     class="st0" /><path
     style="fill:#ffffff"
     inkscape:connector-curvature="0"
     id="path1562"
     d="m 172.3,44.5 c 0,-0.2 0.1,-0.4 0.3,-0.5 0.1,-0.1 0.2,-0.2 0.3,-0.4 l -0.4,0.4 c -0.2,0.1 -0.2,0.3 -0.2,0.5 z"
     class="st0" /><path
     style="fill:#ffffff"
     inkscape:connector-curvature="0"
     id="path1564"
     d="m 173.1,43.3 -0.1,0.1 c 0,0 0,0.1 0,0.1 0,0 0.1,0 0.1,-0.1 0,0 0,-0.1 0,-0.1 z"
     class="st0" /><path
     style="fill:#ffffff"
     inkscape:connector-curvature="0"
     id="path1566"
     d="m 173,43.5 c 0,0 0,0 0,0 z"
     class="st0" /><path
     style="fill:#ffffff"
     inkscape:connector-curvature="0"
     id="path1568"
     d="M 172.1,44.5 Z"
     class="st0" /><path
     style="fill:#ffffff"
     inkscape:connector-curvature="0"
     id="path1570"
     d="m 166.7,39.2 c -0.1,0.2 -0.2,0.4 -0.2,0.5 0,0.2 -0.1,0.5 -0.1,0.7 0.1,-0.2 0.1,-0.4 0.2,-0.7 0,-0.1 0,-0.3 0.1,-0.5 z"
     class="st0" /><path
     style="fill:#ffffff"
     inkscape:connector-curvature="0"
     id="path1572"
     d="m 171.4,45.4 c 0,0 0,0 -0.1,0 v 0.1 0 c 0.1,0 0.1,0 0.1,-0.1 z"
     class="st0" /><path
     style="fill:#ffffff"
     inkscape:connector-curvature="0"
     id="path1574"
     d="m 171.5,45.2 c 0.1,0 0.1,0 0.2,0 0,-0.1 0,-0.1 0.1,-0.2 -0.1,0 -0.2,0.1 -0.3,0.2 z"
     class="st0" /><path
     style="fill:#ffffff"
     inkscape:connector-curvature="0"
     id="path1576"
     d="m 171.3,45.5 c 0,0 0,0.1 0,0 -0.1,0.1 -0.1,0.1 -0.1,0.2 0,0.1 0.1,-0.1 0.1,-0.2 z"
     class="st0" /><path
     style="fill:#ffffff"
     inkscape:connector-curvature="0"
     id="path1578"
     d="m 171,45.9 c 0,-0.1 0,-0.1 0.1,-0.1 0.1,0 0.1,-0.1 0.1,-0.1 -0.1,0 -0.1,0 -0.2,0.1 0,-0.1 0,0 0,0.1 z"
     class="st0" /><path
     style="fill:#ffffff"
     inkscape:connector-curvature="0"
     id="path1580"
     d="m 166.1,42.5 c 0,-0.1 0.1,-0.1 0.1,-0.2 -0.1,0 -0.1,0 -0.1,0.2 -0.1,0 -0.1,0 -0.1,0.1 0,0 0.1,0 0.1,-0.1 z"
     class="st0" /><path
     style="fill:#ffffff"
     inkscape:connector-curvature="0"
     id="path1582"
     d="m 177.2,41.6 c 0.1,0 0.1,0 0,0 -0.1,-0.1 0,0 0,0 z"
     class="st0" /><path
     style="fill:#ffffff"
     inkscape:connector-curvature="0"
     id="path1584"
     d="m 177.2,41.7 c 0,0.1 0.1,0 0,0 -0.1,-0.2 -0.1,0 0,0 z"
     class="st0" /><path
     style="fill:#ffffff"
     inkscape:connector-curvature="0"
     id="path1586"
     d="m 177.1,45.1 v 0 c 0,0 0.1,0 0,0 z"
     class="st0" /><path
     style="fill:#ffffff"
     inkscape:connector-curvature="0"
     id="path1588"
     d="m 177.2,43.1 c 0,0.1 0,0.1 0,0 0,-0.1 0,-0.2 0,0 z"
     class="st0" /><path
     style="fill:#ffffff"
     inkscape:connector-curvature="0"
     id="path1590"
     d="m 177.3,45.3 c 0,0 0.1,-0.1 0,-0.1 -0.1,0 -0.1,0 -0.1,0.1 0,0.1 0,0.1 0,0.2 -0.1,-0.1 0,-0.1 0.1,-0.2 -0.1,0 -0.1,0 0,0 z"
     class="st0" /><path
     style="fill:#ffffff"
     inkscape:connector-curvature="0"
     id="path1592"
     d="m 177,43.2 c 0,0.1 0,0.2 0.1,0.2 0,-0.2 0,-0.2 -0.1,-0.2 z"
     class="st0" /><path
     style="fill:#ffffff"
     inkscape:connector-curvature="0"
     id="path1594"
     d="m 177.2,45 c 0.1,0 0.1,-0.1 0,-0.2 -0.1,0.2 -0.1,0.2 0,0.2 z"
     class="st0" /><path
     style="fill:#ffffff"
     inkscape:connector-curvature="0"
     id="path1596"
     d="m 177,42.8 c 0,0.2 0,0.2 0,0 0,-0.2 0.1,-0.1 0,0 z"
     class="st0" /><path
     style="fill:#ffffff"
     inkscape:connector-curvature="0"
     id="path1598"
     d="m 177.1,44.8 c 0,-0.1 0,-0.1 0,-0.2 0,0 0,-0.1 -0.1,-0.1 -0.1,0 0,0.1 0,0.2 0,0.1 0,0.1 0.1,0.1 z"
     class="st0" /><path
     style="fill:#ffffff"
     inkscape:connector-curvature="0"
     id="path1600"
     d="m 177.1,43.5 c 0,0 0.1,0 0,0 -0.1,0 0,0 0,0 z"
     class="st0" /><path
     style="fill:#ffffff"
     inkscape:connector-curvature="0"
     id="path1602"
     d="m 165.2,23.7 c 0,-0.1 -0.1,-0.2 -0.1,-0.2 -0.4,-0.1 -0.8,-0.1 -1.2,-0.3 -0.4,-0.1 -0.9,-0.1 -1.3,0.2 -0.1,-0.1 -0.2,-0.1 -0.3,-0.1 0.1,0.2 0.1,0.4 0,0.5 -0.1,0.2 -0.1,0.4 0,0.6 -0.2,0.3 -0.3,0.6 -0.3,0.9 0,0.3 -0.1,0.6 -0.2,0.9 0,0.1 0,0.1 0,0.1 0,0 0,0.1 0,0.1 -0.1,0 -0.1,0.1 -0.1,0.2 0,0.1 0,0.2 0,0.3 -0.1,0.1 -0.1,0.2 -0.1,0.3 0,0.1 0,0.2 0.1,0.3 h -0.1 -0.1 c 0,0.1 0,0.1 0,0.1 0,0 0.1,0.1 0.1,0.2 -0.2,0.1 -0.2,0.3 -0.2,0.5 0,0.2 0,0.4 0,0.5 0,-0.1 0,-0.1 0.1,-0.1 0,0 0,0 0,0 0,0.1 0,0.1 0,0.2 0,0 0,0.1 -0.1,0.1 v 0 0 0 c 0,0.2 0,0.3 0,0.5 l -0.1,0.5 c 0.1,0 0.1,0 0.1,-0.1 0,-0.1 0,-0.1 0.1,-0.1 0,0.1 0,0.2 0,0.3 0,0.1 0,0.2 -0.1,0.2 0,-0.1 0,-0.1 0,-0.2 0,0 0,0 -0.1,0 v 0.2 l 0.1,0.1 c 0,0.1 -0.1,0.1 -0.1,0.1 0,0 -0.1,0 -0.1,0 0,0 0,0.1 0,0.1 0,0 0,0.1 0.1,0.1 -0.2,0.1 -0.3,0.2 -0.2,0.4 0,0.2 0,0.4 -0.1,0.5 0.1,0 0.2,0 0.2,0.2 H 161 c 0,0.1 0,0.1 0,0.2 0,0.1 0.1,0.2 0.1,0.2 -0.1,0.1 -0.1,0.1 -0.1,0 0,-0.1 0,0 -0.1,0 0,0.2 0,0.4 -0.1,0.5 h 0.1 c 0,0 0,0.1 0,0.1 0,0 0,0.1 0,0.1 0.1,0 0.1,0 0.1,0.1 0,0.1 -0.1,0.1 -0.1,0.1 0,0 0,0.1 0,0.2 0,0.1 -0.1,0.2 -0.2,0.3 0.1,0.1 0.1,0.2 0,0.3 0,0.1 -0.1,0.2 -0.1,0.3 0,-0.1 0,-0.2 0,-0.2 0,0.1 0,0.1 0,0.2 0,0.1 0,0.1 0,0.2 0,0.1 0,-0.1 0.1,-0.1 v 0.1 h -0.1 c -0.1,0.2 -0.1,0.4 -0.2,0.6 -0.1,0.1 -0.1,0.3 0,0.4 v 0 c 0.1,-0.1 0.1,-0.1 0,0 h -0.1 c 0,0.1 0.1,0.1 0.1,0.2 -0.2,0 -0.3,0.1 -0.2,0.2 0.1,0.1 0.1,0 0.1,0 0,0 0,-0.1 0,0 0,0.1 0,0.1 0,0.2 0,0.1 0,0.1 -0.1,0.1 0,0.1 0,0.2 0,0.2 0,0 -0.1,0 -0.1,-0.1 0,0 0,0 0,0 0,0 0,-0.1 0,-0.1 -0.1,0 -0.1,-0.1 0,-0.1 0.1,0 0,-0.1 0,-0.1 -0.1,0.2 -0.1,0.3 0,0.5 0.1,0.2 0.1,0.3 0,0.4 0,0 0,-0.1 -0.1,-0.1 0,0 0,0 0,0 0.1,0.1 0.1,0.1 0,0.1 -0.1,0 -0.1,0.1 -0.1,0.1 0.1,0 0.1,0 0,0.1 0.1,0 0.1,0 0.1,0 0,0 0,0 0.1,0 0,0 0,0.1 -0.1,0.1 0,0 0,0 0,0 0,0 -0.1,0 -0.1,0.1 0,0 0,0 0,0 0.1,0 0.1,0 0.1,0 0,0 0.1,0 0.1,0 -0.1,0 -0.2,0.1 -0.2,0.2 0,-0.1 0.1,-0.1 0.2,0 -0.1,0 -0.1,0 0,0 0.1,0 0,0 0,0.1 0,0.1 -0.1,0 -0.1,0 0,0 -0.1,-0.1 0,-0.2 -0.1,0.1 -0.1,0.2 -0.1,0.3 -0.1,0.2 0,0.4 0.1,0.6 -0.1,0.1 -0.1,0.2 0,0.4 0,0.2 0,0.3 -0.1,0.4 0,-0.1 0,-0.1 -0.1,-0.1 0,0.2 0,0.3 -0.1,0.4 0.1,0 0.1,0 0.1,-0.1 0,-0.1 0,-0.1 0.1,-0.2 0,0.3 0,0.6 0,0.8 0,0.2 -0.1,0.4 -0.2,0.6 0,0 0,-0.1 0,-0.1 -0.1,0.1 -0.1,0.2 0,0.3 v 0 c 0,0.1 0,0.1 0,0.2 0,0.1 0,0.1 -0.1,0.1 0,0 0,-0.1 0,-0.1 0,0 0,-0.1 -0.1,-0.1 v 0.4 c 0.1,-0.1 0.1,0 0.1,0 0,0 0,0.1 0,0.1 0,0 0,-0.1 0,-0.1 0,0 0,-0.1 0,-0.1 -0.1,0.2 0,0.4 0.1,0.6 l -0.1,0.1 c 0,0.1 -0.1,0.1 -0.1,0.1 0.1,0 0.2,0.1 0.2,0.2 0,0 0,0 0,0 0,0.1 0,0.2 -0.1,0.3 -0.1,-0.1 -0.1,-0.3 0,-0.5 -0.2,0 -0.2,0.1 -0.1,0.2 0.1,0.1 0.1,0.2 0,0.2 0,0 0,0 0,0 0,0.1 0.1,0.1 0.2,0.1 0.1,0 0.1,0 0,0.1 -0.1,0.1 -0.1,0 -0.1,0 v 0 c 0,0 0,0.1 -0.1,0.1 -0.1,0 -0.1,0 0,0.1 0.1,0.1 0.1,-0.1 0.1,0 0,0 0.1,0.1 0.1,0.1 -0.1,0.1 -0.1,0.1 -0.1,0.1 0,0 0,0.1 0,0.1 -0.1,0 -0.1,-0.1 0,-0.1 0.1,0 0,-0.1 -0.1,-0.1 0,0.1 0,0.3 0,0.4 l 0.1,0.4 c -0.1,-0.1 -0.1,-0.1 -0.1,0 0,0 0,0.1 0,0.1 0,0 0.1,0 0.1,0 0,0 0,0 0,0 l -0.2,0.3 c 0,0.1 0,0.2 0.1,0.2 -0.1,0 -0.2,0.1 -0.2,0.2 0,0.1 0,0.2 0.1,0.3 0.1,0 0.1,0 0,-0.1 -0.1,-0.1 0,-0.1 0.1,-0.1 0,0.1 0,0.1 0,0.2 0,0.1 0,0.1 -0.1,0.1 -0.1,0 -0.1,0.1 0,0.1 0.1,0 0.1,0 0.1,0.1 0,0.1 -0.1,0 -0.1,-0.1 0,-0.1 -0.1,0 -0.1,0.1 0,0.1 0.1,0 0,0.1 0,0 0,0.1 0,0.2 0,0 0,0 0.1,0 0.1,0 0.1,0 0.1,0.1 0,0.1 -0.1,0 -0.1,0 0,0 0.1,0.1 0.1,0.1 H 159 c 0,0.2 0,0.4 0,0.5 0,0.2 0,0.4 0.1,0.5 0,0 0,0 -0.1,0 0.1,0.2 0.2,0.4 0.2,0.6 0,0.2 0,0.4 0.1,0.6 0,0.3 0,0.7 0.2,1 0.2,0.3 0.4,0.6 0.5,0.8 0.3,0.4 0.7,0.6 1.2,0.8 l 1.4,0.5 c 0,0 0,0 0.1,0 0.1,0 0.1,0 0.1,0.1 0.4,0 0.7,0 1.1,-0.1 0.3,-0.1 0.6,-0.2 0.9,-0.4 -0.1,0 -0.1,0 -0.1,0 0.1,-0.1 0.2,-0.1 0.2,-0.1 0.1,0 0.1,-0.1 0.1,-0.3 0,-0.2 -0.1,-0.1 -0.1,0 0,0.1 0,0.1 0,0 0,0 0.1,-0.1 0.1,-0.1 0,0 0,-0.1 0,-0.1 h -0.1 c 0.1,-0.2 0.1,-0.5 0,-0.7 -0.1,-0.2 -0.1,-0.4 0.1,-0.5 0,0 0,0 -0.1,0 0.1,-0.1 0.1,-0.2 0,-0.3 -0.1,-0.1 -0.1,-0.3 0,-0.4 v 0 c -0.4,0.2 -0.7,0.6 -0.9,0.9 -0.2,0.4 -0.6,0.7 -1,0.8 -0.2,-0.5 -0.4,-1.1 -0.4,-1.6 -0.1,-0.6 -0.1,-1.2 -0.1,-1.8 0,-0.6 0,-1.2 0.1,-1.8 0.1,-0.6 0,-1.2 0,-1.6 0.2,-0.3 0.2,-0.6 0.2,-0.9 -0.1,-0.3 0,-0.6 0.1,-0.9 -0.1,-0.5 0,-0.9 0.1,-1.4 0.1,-0.5 0.2,-0.9 0.2,-1.4 0.2,-0.5 0.2,-0.9 0.3,-1.4 0,-0.4 0.1,-0.9 0.2,-1.3 0,0 0,0 0,-0.1 0.4,-1.5 0.7,-3.1 1,-4.7 0.3,-1.6 0.5,-3.2 0.7,-4.8 0.1,-0.3 0.2,-0.7 0.2,-1 0,-0.4 0,-0.8 -0.1,-1.2 -0.2,0.3 -0.3,0.2 -0.3,0.1 0,0 0,0 0,0 z m -3.7,4.4 h 0.1 v 0.1 h -0.1 z m 0,0.3 c 0,0 0,0 0,0 0,0 -0.1,0.1 0,0 z m -0.1,0.6 z m -0.2,0.4 c 0,0 0,0 0.1,0 0.1,0 0,0 -0.1,0 z m -0.4,2.1 c 0,-0.1 0,-0.2 0,-0.4 0,-0.1 0,-0.2 0.1,-0.3 0.1,0.1 0.1,0.2 0,0.4 -0.1,0.2 0,0.3 -0.1,0.3 z m 0,0.4 c 0.1,0.1 0.1,0.1 0,0.1 -0.1,0 -0.1,0 0,-0.1 z m -0.1,0.8 v -0.2 0 z m -0.4,2.1 c 0,-0.1 0,-0.1 0.1,-0.1 0,0.2 0,0.3 -0.1,0.3 0,-0.1 0,-0.2 -0.1,-0.2 z m -0.1,0.6 c 0,-0.1 0,-0.1 0,-0.1 0,0 0.1,-0.1 0.1,-0.2 0,-0.1 0.1,0 0.1,0.1 -0.1,0.1 -0.1,0.2 -0.2,0.2 0,0.1 -0.1,0 -0.1,0 z m -0.3,1.6 v -0.1 0 z m -0.2,1.2 c 0,-0.1 0,-0.3 0,-0.4 h 0.1 c 0,0.1 0,0.2 0,0.2 0.1,0.2 0,0.2 -0.1,0.2 z m -0.4,3.4 c 0,-0.1 0,-0.1 0,0 0,0.1 0.1,0.1 0,0 z m -0.2,5.7 c 0,0 0,-0.1 0,0 0,0.1 0,0 0,0 v 0 c 0,0 0,0 0,0 z m 0,-1 c 0,0 0,0 0,0 0,-0.1 0,-0.2 0,-0.2 0,0.1 0,0.2 0,0.2 z m 0,1.4 c 0,0 0,0 0,0 0.1,0.1 0.1,0.1 0,0 z m 0.1,-2 c 0.1,0 0.1,0 0,0 0.1,0.2 0,0.2 0,0.2 -0.1,0 -0.1,-0.1 0,-0.1 0.1,0 0.1,0 0,-0.1 z m 0,-0.2 z m 0,1.1 c 0,0.1 0,0.1 0,0 0,-0.1 0.1,-0.1 0.1,0 z m 0,0.4 c -0.1,0 -0.1,0 0,-0.1 0.2,0.2 0.2,0.2 0.1,0.2 z m 0,-1.8 c 0,-0.1 -0.1,-0.1 0,0 0.1,-0.1 0.1,-0.1 0,-0.2 -0.1,-0.1 0.1,0.1 0.1,0.2 0,0.1 0.1,0 -0.1,0 z m 0,-0.3 c 0,-0.1 0,-0.2 0,-0.3 0,-0.1 0,-0.2 0,-0.4 0.1,0.1 0.1,0.2 0.1,0.3 0,0.2 0,0.3 -0.1,0.4 z m 0,-1 c 0,0 0,0 0.1,0 0.1,0 0.1,0 -0.1,0 z m 0.2,-0.5 c 0,0.1 -0.1,0.2 -0.1,0.3 -0.1,-0.1 -0.1,-0.2 -0.1,-0.3 0,-0.1 0,-0.2 0.1,-0.3 0.1,0 0.2,0.2 0.1,0.3 0.1,0 0.1,0.1 0,0 z m 0.1,-0.6 c 0,0.1 -0.1,0.2 -0.1,0.3 -0.1,-0.1 -0.1,-0.2 0,-0.3 0,-0.1 0.1,-0.2 0.1,-0.3 0.1,0.1 0.1,0.2 0,0.3 z m -0.1,-0.4 c 0,-0.1 0,-0.1 0,-0.1 0,0 0,-0.1 0,-0.1 0,0 0.1,0 0.1,0.1 0,0.1 0,0.2 -0.1,0.1 z m 0.1,-0.3 c -0.1,0 -0.1,-0.1 -0.1,-0.2 0,-0.1 0,-0.1 0,-0.2 0.1,0.1 0.1,0.1 0.1,0.2 0,0 0,0.1 0,0.2 z m 0.1,-1.7 c -0.1,0.2 -0.1,0.4 0,0.5 v 0 c 0,0.1 0,0.1 0,0.2 0,0.1 0,0.2 0,0.2 -0.1,0 -0.1,-0.1 -0.1,-0.2 0,-0.1 0.1,-0.2 0.1,-0.2 0,-0.1 0,-0.2 0,-0.5 0,0 0.1,-0.2 0.1,-0.3 0.1,0.2 0.1,0.3 -0.1,0.3 z m 0.1,-1 c -0.1,0.2 -0.1,0.5 -0.1,0.7 -0.1,-0.2 -0.1,-0.5 0,-0.7 0,-0.2 0.1,-0.5 0.2,-0.7 0.1,0.2 0.1,0.5 -0.1,0.7 z m 0.3,-1.1 c -0.1,0.1 -0.1,0.3 0,0.4 -0.1,-0.1 -0.2,-0.2 -0.1,-0.3 0.1,-0.1 0.1,-0.3 0.1,-0.4 0.1,0.1 0.1,0.2 0,0.3 z m 0.1,-0.6 -0.1,0.3 c -0.1,-0.1 -0.1,-0.1 0.1,-0.3 0,0 0,-0.1 -0.1,-0.2 0.1,0 0.1,0.1 0.1,0.2 z m 0.6,-4 c 0,0.1 -0.1,0.2 -0.1,0.2 -0.1,0.6 -0.1,1.2 -0.2,1.8 -0.1,0.6 -0.2,1.1 -0.3,1.7 0,-0.6 0,-1.2 0.1,-1.8 0.1,-0.5 0.2,-1.1 0.4,-1.7 0.2,-0.9 0,-0.1 0,-0.2 0,-0.1 0.1,-0.2 0.1,-0.3 0,0.1 0,0.2 0,0.3 z m 0.1,-0.5 h -0.1 v -0.1 z m 0.2,-1 c 0,0.3 -0.1,0.5 -0.3,0.8 0.1,-0.3 0.1,-0.5 0.1,-0.8 0,-0.3 0.1,-0.5 0.2,-0.8 0,0.3 0,0.5 0,0.8 z m 0.1,-1.3 c 0.1,0 0.1,0.1 0.1,0.2 0,0.1 -0.1,0.2 -0.1,0.2 0,-0.1 0,-0.1 0,-0.2 0,-0.1 0,-0.1 0,-0.2 0,-0.2 0,-0.3 0.1,-0.5 0.1,0 0.1,0.1 0.1,0.3 0,0.2 -0.1,0.2 -0.2,0.2 z m 0.1,-0.6 c 0,-0.1 0,-0.1 0,-0.1 v 0 c 0,0 0,0 0,0.1 z m 0.1,-0.2 V 30 29.9 c 0,0 0,0 0,0.1 0,0.1 0.1,0.1 0,0.1 z m 0.2,-0.7 c 0,0.1 -0.1,0.2 -0.2,0.2 0.1,-0.1 0.1,-0.3 0.1,-0.4 0.2,0 0.2,0 0.1,0.2 z m 0.3,-1.1 c 0,0.1 -0.1,0.2 -0.2,0.3 0,-0.2 0.1,-0.3 0.1,-0.5 0.1,0 0.1,0.1 0.1,0.2 z m 0,-0.4 z m 0.2,-0.5 h -0.1 v -0.1 h 0.1 z m 2.8,21.7 v 0 c 0,0.1 0,0.1 0,0 z"
     class="st0" /><path
     style="fill:#ffffff"
     inkscape:connector-curvature="0"
     id="path1604"
     d="m 160.3,33.8 c 0,0 0,0 0,0 0,-0.2 0,-0.1 0,0 z"
     class="st0" /><path
     style="fill:#ffffff"
     inkscape:connector-curvature="0"
     id="path1606"
     d="m 160.7,31.7 c 0,0 0,0 0,-0.1 -0.1,0 -0.1,0 -0.1,0.1 0,0.1 0,0.1 0,0.1 0,0 0,-0.1 0,-0.1 0,0 0.1,0 0.1,0 z"
     class="st0" /><path
     style="fill:#ffffff"
     inkscape:connector-curvature="0"
     id="path1608"
     d="m 160,35.5 v 0 c 0,0 0,0.1 0,0 z"
     class="st0" /><path
     style="fill:#ffffff"
     inkscape:connector-curvature="0"
     id="path1610"
     d="M 159.7,37.5 Z"
     class="st0" /><path
     style="fill:#ffffff"
     inkscape:connector-curvature="0"
     id="path1612"
     d="m 161,30.3 c 0,0 0.1,0 0.1,-0.1 -0.2,0 -0.2,0 -0.1,0.1 z"
     class="st0" /><path
     style="fill:#ffffff"
     inkscape:connector-curvature="0"
     id="path1614"
     d="m 160.5,33 c -0.1,0 -0.1,0 -0.1,0.1 0,0.1 0,0.1 0.1,0.1 0,0 0,-0.1 0,-0.2 0,0.1 0,0 0,0 z"
     class="st0" /><path
     style="fill:#ffffff"
     inkscape:connector-curvature="0"
     id="path1616"
     d="m 176.9,43.8 c 0,0.1 0,0.1 0,0 0,0.1 0,0.1 0,0.2 0,0 0,0 0,-0.2 z"
     class="st0" /><path
     style="fill:#ffffff"
     inkscape:connector-curvature="0"
     id="path1618"
     d="m 177,42.2 c 0,-0.2 0,-0.3 -0.1,-0.3 0,0.1 0,0.2 0,0.2 0,0.1 0,0.2 0.1,0.1 z"
     class="st0" /><path
     style="fill:#ffffff"
     inkscape:connector-curvature="0"
     id="path1620"
     d="m 177,44.3 c 0,-0.1 0,-0.1 -0.1,-0.1 -0.1,0 0,0.1 0,0.2 0,0.1 0,0.1 0,0.1 0,0 0.1,-0.1 0.1,-0.2 z"
     class="st0" /><path
     style="fill:#ffffff"
     inkscape:connector-curvature="0"
     id="path1622"
     d="m 159,45.9 c -0.1,0 0,0.1 0,0 0,0.1 0,-0.1 0,0 z"
     class="st0" /></g>
</svg>