<?xml version="1.0" encoding="UTF-8"?>
<!DOCTYPE svg PUBLIC "-//W3C//DTD SVG 1.0//EN" "http://www.w3.org/TR/2001/REC-SVG-20010904/DTD/svg10.dtd">
<!-- Creator: CorelDRAW X8 -->
<svg xmlns="http://www.w3.org/2000/svg" xml:space="preserve" width="1.97052in" height="0.948776in" version="1.0" style="shape-rendering:geometricPrecision; text-rendering:geometricPrecision; image-rendering:optimizeQuality; fill-rule:evenodd; clip-rule:evenodd"
viewBox="0 0 756 364"
 xmlns:xlink="http://www.w3.org/1999/xlink">
 <defs>
  <style type="text/css">
   <![CDATA[
    .fil0 {fill:#0d3f88;fill-rule:nonzero}
   ]]>
  </style>
 </defs>
 <g id="Layer_x0020_1">
  <metadata id="CorelCorpID_0Corel-Layer"/>
  <g id="_2068544473552">
   <path class="fil0" d="M6 0l713 0 0 299 -719 0 0 -299 6 0zm700 12l-693 0 0 275 693 0 0 -275z"/>
   <path class="fil0" d="M165 114c0,18 -10,29 -31,29l-34 0 0 -57 34 0c21,0 31,11 31,28zm-121 -74l0 229 56 0 0 -87 13 0 47 87 63 0 -53 -91c36,-10 51,-37 51,-66 0,-40 -28,-72 -84,-72l-93 0zm338 159c0,16 -11,25 -29,25l-41 0 0 -51 40 0c19,0 30,10 30,26zm-6 -90c0,15 -10,23 -28,23l-36 0 0 -47 36 0c18,0 28,8 28,24zm62 97c0,-26 -17,-49 -44,-55 23,-6 39,-24 39,-52 0,-36 -28,-59 -74,-59l-103 0 0 229 107 0c48,0 75,-25 75,-63zm181 -166l0 142 -93 -142 -55 0 0 229 55 0 0 -141 93 141 56 0 0 -229 -56 0z"/>
   <path class="fil0" d="M25 332c0,4 -3,7 -8,7l-8 0 0 -14 8 0c5,0 8,3 8,7zm-25 -15l0 47 9 0 0 -18 5 0 10 18 11 0 -11 -19c7,-2 10,-8 10,-13 0,-8 -5,-15 -17,-15l-17 0zm69 0l-26 0 0 47 26 0 0 -8 -17 0 0 -12 15 0 0 -8 -15 0 0 -11 17 0 0 -8zm40 47l10 0 -17 -47 -10 0 -17 47 10 0 3 -9 18 0 3 9zm-5 -17l-14 0 7 -19 7 19zm21 -30l0 47 25 0 0 -8 -15 0 0 -39 -10 0zm72 33c0,4 -2,6 -7,6l-9 0 0 -12 9 0c5,0 7,2 7,6zm-1 -19c0,3 -2,5 -7,5l-8 0 0 -11 8 0c5,0 7,2 7,6zm11 20c0,-5 -4,-10 -9,-11 4,-2 8,-5 8,-11 0,-7 -6,-12 -15,-12l-19 0 0 47 20 0c9,0 15,-5 15,-13zm7 -5c0,12 9,18 19,18 10,0 19,-6 19,-18l0 -29 -10 0 0 29c0,6 -3,10 -9,10 -6,0 -10,-4 -10,-10l0 -29 -9 0 0 29zm58 2l0 16 10 0 0 -16 15 -31 -10 0 -10 22 -10 -22 -10 0 15 31zm58 -31l-27 0 0 47 27 0 0 -8 -18 0 0 -12 16 0 0 -8 -16 0 0 -11 18 0 0 -8zm33 15c0,4 -3,7 -8,7l-8 0 0 -14 8 0c5,0 8,3 8,7zm-25 -15l0 47 9 0 0 -18 5 0 10 18 11 0 -11 -19c7,-2 10,-8 10,-13 0,-8 -5,-15 -17,-15l-17 0zm89 0l0 32 -21 -32 -10 0 0 47 10 0 0 -32 21 32 9 0 0 -47 -9 0zm45 0l-27 0 0 47 27 0 0 -8 -18 0 0 -12 16 0 0 -8 -16 0 0 -11 18 0 0 -8zm6 8l12 0 0 39 10 0 0 -39 12 0 0 -8 -34 0 0 8zm50 39l11 0 9 -33 9 33 11 0 13 -47 -10 0 -9 36 -8 -36 -11 0 -9 36 -8 -36 -10 0 12 47zm104 -24c0,-13 -11,-23 -24,-23 -13,0 -24,10 -24,23 0,14 11,24 24,24 13,0 24,-10 24,-24zm-38 0c0,-9 6,-15 14,-15 9,0 14,6 14,15 0,10 -5,16 -14,16 -8,0 -14,-6 -14,-16zm69 -8c0,4 -2,7 -7,7l-8 0 0 -14 8 0c5,0 7,3 7,7zm-24 -15l0 47 9 0 0 -18 4 0 11 18 10 0 -11 -19c8,-2 11,-8 11,-13 0,-8 -6,-15 -17,-15l-17 0zm68 47l12 0 -19 -24 19 -23 -12 0 -16 21 0 -21 -10 0 0 47 10 0 0 -21 16 21z"/>
   <polygon class="fil0" points="726,3 731,3 731,16 734,16 734,3 739,3 739,0 726,0 "/>
   <polygon class="fil0" points="748,12 743,0 741,0 739,16 742,16 743,6 747,16 749,16 753,6 754,16 756,16 755,0 752,0 "/>
  </g>
 </g>
</svg>
